<?xml version="1.0" encoding="iso-8859-1"?>
<!-- Generator: Adobe Illustrator 19.0.0, SVG Export Plug-In . SVG Version: 6.00 Build 0)  -->
<svg version="1.1" id="Capa_1" xmlns="http://www.w3.org/2000/svg" xmlns:xlink="http://www.w3.org/1999/xlink" x="0px" y="0px"
	 viewBox="0 0 512.003 512.003" style="enable-background:new 0 0 512.003 512.003;" xml:space="preserve">
<g>
	<g>
		<circle style="fill:#E6646E;" cx="256.001" cy="256.001" r="248.5"/>
		<path style="fill:#DC4655;" d="M292.074,468.429c-137.243,0-248.5-111.258-248.5-248.5c0-59.433,20.891-113.971,55.695-156.733
			C43.285,108.761,7.501,178.191,7.501,256.001c0,137.242,111.257,248.5,248.5,248.5c77.81,0,147.242-35.784,192.806-91.769
			C406.046,447.537,351.507,468.429,292.074,468.429z"/>
		<path style="fill:#FFFFFF;" d="M320.158,400.361c-3.347,0-6.744-0.423-10.134-1.307c-34.233-8.916-73.813-8.916-108.046,0
			c-21.418,5.593-43.31-7.261-48.891-28.679c-5.582-21.418,7.257-43.31,28.679-48.891c47.416-12.361,101.055-12.361,148.471,0
			c21.422,5.582,34.26,27.473,28.679,48.891C354.218,388.407,337.959,400.361,320.158,400.361z"/>
		<path style="fill:#5A4650;" d="M171.832,272.033L171.832,272.033c-11.068,0-20.04-8.972-20.04-20.04v-16.032
			c0-11.068,8.972-20.04,20.04-20.04h0c11.068,0,20.04,8.972,20.04,20.04v16.032C191.872,263.061,182.9,272.033,171.832,272.033z"/>
		<path style="fill:#6E5A64;" d="M191.872,235.961c0-12.379-11.222-22.135-24.048-19.651v15.643
			c0,13.282,10.767,24.048,24.048,24.048h0V235.961z"/>
		<path style="fill:#5A4650;" d="M340.171,272.033L340.171,272.033c-11.068,0-20.04-8.972-20.04-20.04v-16.032
			c0-11.068,8.972-20.04,20.04-20.04h0c11.068,0,20.04,8.972,20.04,20.04v16.032C360.211,263.061,351.238,272.033,340.171,272.033z"
			/>
		<path style="fill:#6E5A64;" d="M360.211,235.961c0-12.379-11.222-22.135-24.048-19.651v15.643
			c0,13.282,10.767,24.048,24.048,24.048l0,0V235.961z"/>
	</g>
	<g>
		<path d="M171.822,223.445c4.142,0,7.5-3.358,7.5-7.5s-3.358-7.5-7.5-7.5c-15.187,0-27.542,12.356-27.542,27.543v16.034
			c0,15.187,12.355,27.542,27.542,27.542s27.542-12.355,27.542-27.542v-12.026c0-4.142-3.358-7.5-7.5-7.5s-7.5,3.358-7.5,7.5v12.026
			c0,6.916-5.626,12.542-12.542,12.542s-12.542-5.626-12.542-12.542v-16.034C159.279,229.071,164.906,223.445,171.822,223.445z"/>
		<path d="M367.723,239.996c0-4.142-3.358-7.5-7.5-7.5s-7.5,3.358-7.5,7.5v12.026c0,6.916-5.626,12.542-12.542,12.542
			s-12.543-5.626-12.543-12.542v-16.034c0-6.916,5.627-12.543,12.543-12.543c4.142,0,7.5-3.358,7.5-7.5s-3.358-7.5-7.5-7.5
			c-15.187,0-27.543,12.356-27.543,27.543v16.034c0,15.187,12.356,27.542,27.543,27.542s27.542-12.355,27.542-27.542V239.996z"/>
		<path d="M15.109,248.714c1.833-61.604,26.857-119.543,70.459-163.146c43.603-43.603,101.543-68.626,163.146-70.459
			c61.333-1.827,120.402,19.43,166.328,59.851c3.109,2.737,7.849,2.435,10.585-0.675c2.737-3.109,2.435-7.848-0.675-10.585
			C376.162,20.758,313.416-1.823,248.268,0.115c-65.44,1.948-126.989,28.529-173.306,74.846
			C28.644,121.279,2.063,182.827,0.115,248.268C-1.824,313.415,20.757,376.162,63.7,424.952c1.482,1.685,3.552,2.545,5.633,2.545
			c1.76,0,3.527-0.616,4.952-1.87c3.109-2.737,3.412-7.476,0.675-10.585C34.538,369.116,13.283,310.047,15.109,248.714z"/>
		<path d="M448.302,87.051c-2.736-3.109-7.476-3.412-10.585-0.675c-3.109,2.737-3.412,7.476-0.675,10.585
			c40.421,45.925,61.677,104.995,59.852,166.327c-1.833,61.603-26.856,119.543-70.459,163.146
			c-43.603,43.603-101.542,68.626-163.146,70.459c-61.338,1.832-120.402-19.43-166.328-59.851
			c-3.108-2.736-7.848-2.435-10.585,0.675c-2.737,3.109-2.435,7.848,0.675,10.585c46.854,41.239,106.58,63.7,168.942,63.7
			c2.576,0,5.158-0.039,7.742-0.116c65.441-1.948,126.989-28.529,173.306-74.846c46.318-46.317,72.899-107.865,74.847-173.306
			C513.826,198.588,491.245,135.84,448.302,87.051z"/>
		<path d="M207.866,207.47c2.872,0,5.612-1.659,6.856-4.451c1.685-3.784-0.017-8.217-3.801-9.902l-72.154-32.126
			c-3.786-1.686-8.218,0.018-9.902,3.801c-1.685,3.784,0.017,8.217,3.801,9.902l72.154,32.126
			C205.811,207.261,206.847,207.47,207.866,207.47z"/>
		<path d="M383.08,164.792c-1.685-3.783-6.117-5.487-9.902-3.801l-72.153,32.126c-3.784,1.685-5.485,6.118-3.801,9.902
			c1.244,2.793,3.984,4.451,6.856,4.451c1.019,0,2.055-0.209,3.046-0.65l72.153-32.126
			C383.063,173.009,384.764,168.576,383.08,164.792z"/>
		<path d="M167.76,401.357c7.398,4.341,15.635,6.562,23.988,6.561c4.028,0,8.085-0.517,12.085-1.562
			c33.135-8.63,71.143-8.63,104.274-0.001c3.942,1.029,7.989,1.551,12.029,1.551c21.636,0,40.56-14.639,46.02-35.598
			c3.205-12.299,1.428-25.11-5.002-36.074c-6.431-10.964-16.747-18.767-29.045-21.972c-48.386-12.614-103.886-12.614-152.271,0
			c-12.3,3.205-22.616,11.008-29.047,21.972c-6.431,10.964-8.207,23.775-5.002,36.074
			C148.994,384.608,156.797,394.924,167.76,401.357z M320.136,392.906c-2.762,0-5.535-0.358-8.245-1.065
			c-35.537-9.256-76.301-9.256-111.843,0.001c-8.418,2.199-17.189,0.983-24.697-3.423c-6.123-3.593-10.804-8.954-13.515-15.379
			c30.097-8.235,61.726-12.414,94.136-12.414c32.407,0,64.033,4.178,94.127,12.411C345.06,384.936,333.338,392.906,320.136,392.906z
			 M183.621,328.777c22.99-5.993,47.67-8.99,72.352-8.99c24.681,0,49.362,2.997,72.353,8.99c8.423,2.195,15.486,7.538,19.89,15.046
			c2.614,4.456,4.095,9.358,4.416,14.367c-30.957-8.331-63.424-12.563-96.659-12.563c-33.235,0-65.702,4.233-96.659,12.563
			c0.321-5.009,1.803-9.911,4.416-14.367C168.133,336.315,175.197,330.972,183.621,328.777z"/>
		<path d="M389.548,82.369c-2.929-2.929-7.678-2.929-10.606,0l-14.74,14.74l-14.74-14.74c-2.929-2.929-7.678-2.929-10.606,0
			c-2.929,2.929-2.929,7.678,0,10.606l14.739,14.74l-14.739,14.739c-2.929,2.929-2.929,7.677,0,10.606
			c1.464,1.465,3.384,2.197,5.303,2.197c1.919,0,3.839-0.732,5.303-2.197l14.74-14.739l14.74,14.739
			c1.464,1.465,3.384,2.197,5.303,2.197s3.839-0.732,5.303-2.197c2.929-2.929,2.929-7.677,0-10.606l-14.739-14.739l14.739-14.74
			C392.478,90.046,392.478,85.298,389.548,82.369z"/>
	</g>
</g>
<g>
</g>
<g>
</g>
<g>
</g>
<g>
</g>
<g>
</g>
<g>
</g>
<g>
</g>
<g>
</g>
<g>
</g>
<g>
</g>
<g>
</g>
<g>
</g>
<g>
</g>
<g>
</g>
<g>
</g>
</svg>
