<?xml version="1.0" encoding="UTF-8"?>
<svg width="513px" height="496px" viewBox="0 0 513 496" version="1.1" xmlns="http://www.w3.org/2000/svg" xmlns:xlink="http://www.w3.org/1999/xlink">
    <title>chips-bet-svgrepo-com</title>
    <g id="Page-1" stroke="none" stroke-width="1" fill="none" fill-rule="evenodd">
        <g id="chips-bet-svgrepo-com" fill-rule="nonzero">
            <g id="Group" transform="translate(170.000000, 9.000000)" fill="#FFE100">
                <path d="M290.8,68.35 C290.8,105.897 260.08,136.617 222.533,136.617 C184.986,136.617 154.266,105.897 154.266,68.35 C154.266,30.803 184.986,0.083 222.533,0.083 C260.08,0.083 290.8,30.803 290.8,68.35" id="Path"></path>
                <path d="M35.653,290.217 C37.36,290.217 39.066,290.217 40.773,290.217 L74.053,290.217 C80.88,290.217 88.56,291.07 94.533,293.63 C120.133,283.39 137.2,258.643 137.2,230.483 C137.2,192.936 106.48,162.216 68.933,162.216 C31.386,162.216 0.666,192.936 0.666,230.483 C0.666,256.083 15.173,278.27 35.653,290.217" id="Path"></path>
            </g>
            <g id="Group" transform="translate(204.000000, 43.000000)" fill="#FFA800">
                <path d="M188.533,68.483 C169.76,68.483 154.4,53.123 154.4,34.35 C154.4,15.577 169.76,0.217 188.533,0.217 C207.306,0.217 222.666,15.577 222.666,34.35 C222.666,53.123 207.307,68.483 188.533,68.483" id="Path"></path>
                <path d="M34.933,230.617 C16.16,230.617 0.8,215.257 0.8,196.484 C0.8,177.711 16.16,162.351 34.933,162.351 C53.706,162.351 69.066,177.711 69.066,196.484 C69.066,215.257 53.707,230.617 34.933,230.617" id="Path"></path>
            </g>
            <g id="Group" transform="translate(25.000000, 282.000000)" fill="#FFE100">
                <path d="M34.733,196.417 L154.2,196.417 C171.267,196.417 231,194.71 248.067,192.15 L316.334,175.083 C319.747,175.083 324.014,174.23 327.427,174.23 L327.427,174.23 C336.814,173.377 344.494,168.257 351.32,162.283 L481.027,61.59 C487,56.47 488.707,48.79 485.294,41.963 C484.441,42.816 482.734,43.67 481.027,44.523 L351.32,145.217 C344.493,151.19 336.813,156.31 327.427,157.164 L327.427,157.164 C324.014,158.017 320.6,158.017 316.334,158.017 L248.067,175.084 C231,177.644 171.267,179.351 154.2,179.351 L43.267,179.351" id="Path"></path>
                <polygon id="Path" points="26.2 204.95 0.6 204.95 0.6 68.417 0.6 34.283 0.6 17.217 0.6 0.15 26.2 0.15"></polygon>
            </g>
            <path d="M51.2,454.523 L170.667,454.523 C187.734,454.523 247.467,452.816 264.534,450.256 L332.8,433.19 C336.213,433.19 340.48,432.337 343.893,432.337 L343.893,432.337 C353.28,431.484 360.96,426.364 367.786,420.39 L497.493,319.697 C503.466,314.577 505.173,306.897 501.76,300.07 C500.907,300.923 499.2,301.777 497.493,302.63 L367.787,403.323 C360.96,409.296 353.28,414.416 343.894,415.27 L343.894,415.27 C340.481,416.123 337.067,416.123 332.801,416.123 L264.534,433.19 C247.467,435.75 187.734,437.457 170.667,437.457 L59.733,437.457" id="Path" fill="#FFA800"></path>
            <path d="M494.933,299.217 C483.84,284.71 481.28,288.124 443.733,307.75 L375.466,350.417 C363.519,356.39 327.679,366.63 306.346,367.484 C308.053,358.951 312.319,345.297 298.666,324.817 C286.719,306.897 256.853,299.217 235.519,299.217 L202.239,299.217 C182.612,299.217 177.492,302.63 162.132,290.684 C126.293,263.376 51.2,307.75 51.2,307.75 L51.2,444.283 L162.133,444.283 C179.2,444.283 238.933,442.576 256,440.016 L324.267,422.949 C327.68,422.949 331.947,422.096 335.36,422.096 L335.36,422.096 C344.747,421.243 352.427,416.123 359.253,410.149 L488.96,309.457 C495.787,304.337 500.053,306.897 494.933,299.217" id="Path" fill="#FFE100"></path>
            <path d="M59.733,495.483 L0,495.483 L0,367.483 C0,362.363 3.413,358.95 8.533,358.95 C13.653,358.95 17.066,362.363 17.066,367.483 L17.066,478.416 L42.666,478.416 L42.666,290.683 L17.066,290.683 L17.066,299.216 C17.066,304.336 13.653,307.749 8.533,307.749 C3.413,307.749 0,304.337 0,299.217 L0,273.617 L59.733,273.617 L59.733,495.483 Z" id="Path" fill="#000000"></path>
            <path d="M17.067,333.35 C17.067,328.23 13.654,324.817 8.534,324.817 C3.414,324.817 0,328.23 0,333.35 C0,338.47 3.413,341.883 8.533,341.883 C13.653,341.883 17.067,338.47 17.067,333.35" id="Path" fill="#000000"></path>
            <path d="M170.667,469.883 L42.667,469.883 L42.667,303.483 L46.08,300.923 C49.493,298.363 121.173,243.75 162.133,274.47 C175.786,284.71 192.853,290.683 210.773,290.683 L244.053,290.683 C268.8,290.683 291.84,302.63 305.493,322.256 C313.173,333.349 314.88,342.736 310.613,350.416 C331.946,350.416 354.986,348.709 365.226,342.736 L438.613,297.509 C476.16,277.882 491.52,277.882 506.88,298.362 C514.56,308.602 512.853,323.962 502.613,332.495 L502.613,332.495 L373.76,434.043 C365.227,441.723 355.84,446.843 345.6,448.55 C342.187,449.403 337.92,450.257 333.653,450.257 L222.72,467.323 C205.653,468.177 187.733,469.883 170.667,469.883 Z M59.733,452.817 L170.666,452.817 C186.879,452.817 203.946,451.964 220.159,449.404 L332.799,432.337 C336.212,432.337 338.772,432.337 342.186,431.484 C349.866,430.631 356.693,427.217 361.813,421.244 L362.666,420.391 L492.373,319.698 C495.786,317.138 495.786,312.018 494.08,309.458 C487.253,299.218 483.84,294.951 448,312.871 L374.613,358.098 C354.986,368.338 317.44,369.191 277.333,368.338 C275.626,368.338 273.92,368.338 273.066,368.338 C267.946,368.338 264.533,368.338 261.973,368.338 L262.826,351.271 C265.386,351.271 268.799,351.271 272.213,351.271 C283.306,350.418 293.546,348.711 296.106,344.444 C296.959,342.737 296.106,337.617 292.693,332.497 C281.6,317.137 263.68,307.75 244.053,307.75 L210.773,307.75 C189.44,307.75 168.106,300.923 151.893,288.123 C128,270.203 80.213,297.51 59.733,312.016 L59.733,452.817 Z" id="Shape" fill="#000000"></path>
            <path d="M59.733,495.483 L0,495.483 L0,273.617 L59.733,273.617 L59.733,495.483 Z M17.067,478.417 L42.667,478.417 L42.667,290.683 L17.067,290.683 L17.067,478.417 Z" id="Shape" fill="#000000"></path>
            <path d="M145.067,393.083 C139.947,393.083 136.534,389.67 136.534,384.55 C136.534,363.217 152.747,350.417 179.201,350.417 L261.974,350.417 C267.094,350.417 270.507,353.83 270.507,358.95 C270.507,364.07 267.094,367.483 261.974,367.483 L179.2,367.483 C153.6,367.483 153.6,380.283 153.6,384.55 C153.6,389.67 150.187,393.083 145.067,393.083 Z" id="Path" fill="#000000"></path>
            <path d="M392.533,154.15 C349.866,154.15 315.733,120.017 315.733,77.35 C315.733,34.683 349.866,0.55 392.533,0.55 C435.2,0.55 469.333,34.683 469.333,77.35 C469.333,120.017 435.2,154.15 392.533,154.15 Z M392.533,17.617 C359.253,17.617 332.8,44.07 332.8,77.35 C332.8,110.63 359.253,137.083 392.533,137.083 C425.813,137.083 452.266,110.63 452.266,77.35 C452.266,44.07 425.813,17.617 392.533,17.617 Z" id="Shape" fill="#000000"></path>
            <path d="M392.533,120.017 C368.64,120.017 349.866,101.244 349.866,77.35 C349.866,53.456 368.639,34.683 392.533,34.683 C416.427,34.683 435.2,53.457 435.2,77.35 C435.2,101.243 416.427,120.017 392.533,120.017 Z M392.533,51.75 C378.026,51.75 366.933,62.843 366.933,77.35 C366.933,91.857 378.026,102.95 392.533,102.95 C407.04,102.95 418.133,91.857 418.133,77.35 C418.133,62.843 407.04,51.75 392.533,51.75 Z" id="Shape" fill="#000000"></path>
            <path d="M392.533,51.75 C387.413,51.75 384,48.337 384,43.217 L384,9.083 C384,3.963 387.413,0.55 392.533,0.55 C397.653,0.55 401.066,3.963 401.066,9.083 L401.066,43.216 C401.067,48.337 397.653,51.75 392.533,51.75 Z" id="Path" fill="#000000"></path>
            <path d="M392.533,145.617 C387.413,145.617 384,142.204 384,137.084 L384,111.484 C384,106.364 387.413,102.951 392.533,102.951 C397.653,102.951 401.066,106.364 401.066,111.484 L401.066,137.084 C401.067,142.203 397.653,145.617 392.533,145.617 Z" id="Path" fill="#000000"></path>
            <path d="M460.8,85.883 L426.667,85.883 C421.547,85.883 418.134,82.47 418.134,77.35 C418.134,72.23 421.547,68.817 426.667,68.817 L460.8,68.817 C465.92,68.817 469.333,72.23 469.333,77.35 C469.333,82.47 465.92,85.883 460.8,85.883 Z" id="Path" fill="#000000"></path>
            <path d="M358.4,85.883 L324.267,85.883 C319.147,85.883 315.734,82.47 315.734,77.35 C315.734,72.23 319.147,68.817 324.267,68.817 L358.4,68.817 C363.52,68.817 366.933,72.23 366.933,77.35 C366.933,82.47 363.52,85.883 358.4,85.883 Z" id="Path" fill="#000000"></path>
            <path d="M238.933,282.15 C215.04,282.15 196.266,263.377 196.266,239.483 C196.266,215.589 215.039,196.816 238.933,196.816 C262.827,196.816 281.6,215.59 281.6,239.483 C281.6,263.376 262.827,282.15 238.933,282.15 Z M238.933,213.883 C224.426,213.883 213.333,224.976 213.333,239.483 C213.333,253.99 224.426,265.083 238.933,265.083 C253.44,265.083 264.533,253.99 264.533,239.483 C264.533,224.976 253.44,213.883 238.933,213.883 Z" id="Shape" fill="#000000"></path>
            <path d="M238.933,213.883 C233.813,213.883 230.4,210.47 230.4,205.35 L230.4,171.217 C230.4,166.097 233.813,162.684 238.933,162.684 C244.053,162.684 247.466,166.097 247.466,171.217 L247.466,205.35 C247.467,210.47 244.053,213.883 238.933,213.883 Z" id="Path" fill="#000000"></path>
            <path d="M238.933,307.75 C233.813,307.75 230.4,304.337 230.4,299.217 L230.4,273.617 C230.4,268.497 233.813,265.084 238.933,265.084 C244.053,265.084 247.466,268.497 247.466,273.617 L247.466,299.217 C247.467,304.337 244.053,307.75 238.933,307.75 Z" id="Path" fill="#000000"></path>
            <path d="M307.2,248.017 L273.067,248.017 C267.947,248.017 264.534,244.604 264.534,239.484 C264.534,234.364 267.947,230.951 273.067,230.951 L307.2,230.951 C312.32,230.951 315.733,234.364 315.733,239.484 C315.733,244.603 312.32,248.017 307.2,248.017 Z" id="Path" fill="#000000"></path>
            <path d="M204.8,248.017 L170.667,248.017 C165.547,248.017 162.134,244.604 162.134,239.484 C162.134,234.364 165.547,230.951 170.667,230.951 L204.8,230.951 C209.92,230.951 213.333,234.364 213.333,239.484 C213.333,244.603 209.92,248.017 204.8,248.017 Z" id="Path" fill="#000000"></path>
            <rect id="Rectangle" fill="#000000" transform="translate(425.730269, 39.726086) rotate(135.000000) translate(-425.730269, -39.726086) " x="408.663933" y="31.1926676" width="34.1326727" height="17.0668363"></rect>
            <rect id="Rectangle" fill="#000000" transform="translate(356.328501, 108.778916) rotate(135.000000) translate(-356.328501, -108.778916) " x="343.528624" y="100.245498" width="25.5997545" height="17.0668363"></rect>
            <rect id="Rectangle" fill="#000000" transform="translate(425.786205, 112.236279) rotate(134.991897) translate(-425.786205, -112.236279) " x="417.252787" y="95.1699422" width="17.0668365" height="34.132673"></rect>
            <rect id="Rectangle" fill="#000000" transform="translate(353.218117, 39.849091) rotate(135.000000) translate(-353.218117, -39.849091) " x="344.684699" y="22.7827552" width="17.0668363" height="34.1326727"></rect>
            <path d="M262.827,224.123 C260.267,224.123 258.56,223.27 256.854,221.563 C253.441,218.15 253.441,213.03 256.854,209.616 L280.747,185.723 C284.16,182.31 289.28,182.31 292.694,185.723 C296.107,189.136 296.107,194.256 292.694,197.67 L268.8,221.563 C267.093,223.27 265.387,224.123 262.827,224.123 Z" id="Path" fill="#000000"></path>
            <path d="M190.293,296.657 C187.733,296.657 186.026,295.804 184.32,294.097 C180.907,290.684 180.907,285.564 184.32,282.15 L208.213,258.257 C211.626,254.844 216.746,254.844 220.16,258.257 C223.574,261.67 223.573,266.79 220.16,270.204 L196.267,294.097 C195.413,295.803 192.853,296.657 190.293,296.657 Z" id="Path" fill="#000000"></path>
            <path d="M287.573,296.657 C285.013,296.657 283.306,295.804 281.6,294.097 L257.707,270.204 C254.294,266.791 254.294,261.671 257.707,258.257 C261.12,254.844 266.24,254.844 269.654,258.257 L293.547,282.15 C296.96,285.563 296.96,290.683 293.547,294.097 C291.84,295.803 289.28,296.657 287.573,296.657 Z" id="Path" fill="#000000"></path>
            <path d="M215.04,224.123 C212.48,224.123 210.773,223.27 209.067,221.563 L185.174,197.67 C181.761,194.257 181.761,189.137 185.174,185.723 C188.587,182.309 193.707,182.31 197.121,185.723 L221.014,209.616 C224.427,213.029 224.427,218.149 221.014,221.563 C219.307,223.27 216.747,224.123 215.04,224.123 Z" id="Path" fill="#000000"></path>
            <path d="M265.387,311.163 C264.534,311.163 263.68,311.163 262.827,311.163 C256.854,309.456 250.88,308.603 244.907,308.603 L211.627,308.603 C209.92,308.603 208.214,308.603 206.507,308.603 C204.8,308.603 203.947,307.75 202.24,307.75 C177.493,293.243 162.133,266.79 162.133,239.483 C162.133,196.816 196.266,162.683 238.933,162.683 C281.6,162.683 315.733,196.816 315.733,239.483 C315.733,270.203 296.96,298.363 268.8,310.31 C267.093,311.163 266.24,311.163 265.387,311.163 Z M208.213,290.683 C209.066,290.683 209.92,290.683 210.773,290.683 L244.053,290.683 C250.88,290.683 257.706,291.536 264.533,293.243 C285.013,283.003 298.666,262.523 298.666,239.483 C298.666,206.203 272.213,179.75 238.933,179.75 C205.653,179.75 179.2,206.203 179.2,239.483 C179.2,259.963 190.293,279.59 208.213,290.683 Z" id="Shape" fill="#000000"></path>
        </g>
    </g>
</svg>