<?xml version="1.0" encoding="UTF-8"?>
<svg width="491px" height="276px" viewBox="0 0 491 276" version="1.1" xmlns="http://www.w3.org/2000/svg" xmlns:xlink="http://www.w3.org/1999/xlink">
    <title>money-svgrepo-com</title>
    <g id="Page-1" stroke="none" stroke-width="1" fill="none" fill-rule="evenodd">
        <g id="money-svgrepo-com">
            <rect id="Rectangle" stroke="#979797" fill="#FEE187" x="26.5" y="32.5" width="418" height="243" rx="8"></rect>
            <path d="M368.4,138.1 C368.4,151 357.9,161.5 345,161.5 C332.1,161.5 321.6,151 321.6,138.1 C321.6,125.2 332.1,114.7 345,114.7 C357.9,114.7 368.4,125.2 368.4,138.1 Z M76.1,138.1 C76.1,151 86.6,161.5 99.5,161.5 C112.4,161.5 122.9,151 122.9,138.1 C122.9,125.2 112.4,114.7 99.5,114.7 C86.6,114.7 76.1,125.2 76.1,138.1 Z M38.5,275.7 L306.5,275.7 L306.5,242.8 L78.1,242.8 C78.5,240.5 78.8,238.1 78.8,235.6 C78.8,214.1 61.3,196.6 39.8,196.6 C37.5,196.6 35.2,196.8 33,197.2 L33,78.9 C35.2,79.3 37.5,79.5 39.8,79.5 C61.3,79.5 78.8,62 78.8,40.5 C78.8,38 78.6,35.7 78.1,33.3 L364.2,33.3 C363.4,36.3 363,39.5 363,42.8 C363,64.3 380.5,81.8 402,81.8 C405.3,81.8 408.6,81.4 411.6,80.6 L411.6,160.5 L444.5,160.5 L444.5,39 C444.5,17.8 427.2,0.5 406,0.5 L38.5,0.5 C17.3,0.5 0,17.8 0,39 L0,237.2 C0,258.4 17.3,275.7 38.5,275.7 Z M321.6,248.1 C318.9,248.1 316.7,250.3 316.7,253 L316.7,270.8 C316.7,273.5 318.9,275.7 321.6,275.7 L439.6,275.7 C442.3,275.7 444.5,273.5 444.5,270.8 L444.5,253 C444.5,250.3 442.3,248.1 439.6,248.1 L321.6,248.1 Z M467.4,232.1 L467.4,214.3 C467.4,211.6 465.2,209.4 462.5,209.4 L344.5,209.4 C341.8,209.4 339.6,211.6 339.6,214.3 L339.6,232.1 C339.6,234.8 341.8,237 344.5,237 L462.5,237 C465.2,237 467.4,234.8 467.4,232.1 Z M485.3,170.7 L367.3,170.7 C364.6,170.7 362.4,172.9 362.4,175.6 L362.4,193.4 C362.4,196.1 364.6,198.3 367.3,198.3 L485.3,198.3 C488,198.3 490.2,196.1 490.2,193.4 L490.2,175.6 C490.2,172.9 488,170.7 485.3,170.7 Z M222.3,53.7 C268.9,53.7 306.7,91.5 306.7,138.1 C306.7,184.7 268.9,222.5 222.3,222.5 C175.7,222.5 137.9,184.7 137.9,138.1 C137.9,91.5 175.6,53.7 222.3,53.7 Z M229.7,75.4 L220.1,75.4 C218.6,75.4 217.5,76.6 217.5,78 L217.5,89.5 C210.2,90.6 204.2,93.2 199.7,97.6 C194.7,102.4 192.2,108.5 192.2,116 C192.2,124.2 194.6,130.5 199.3,134.7 C204,138.9 211.6,143.1 221.9,147.3 C226.2,149.1 229.1,151 230.8,152.9 C232.5,154.8 233.3,157.5 233.3,161 C233.3,164 232.5,166.4 230.9,168.3 C229.3,170.1 226.9,171.1 223.7,171.1 C219.9,171.1 216.8,169.9 214.5,167.5 C212.6,165.5 211.4,162.5 211.1,158.5 C211,156.9 209.6,155.7 208,155.8 L192.2,156.1 C190.5,156.1 189.1,157.6 189.1,159.3 C189.5,167.7 192.2,174.1 197.2,178.7 C202.6,183.6 209.4,186.6 217.5,187.5 L217.5,198.3 C217.5,199.8 218.7,200.9 220.1,200.9 L229.7,200.9 C231.2,200.9 232.3,199.7 232.3,198.3 L232.3,187.1 C238.8,185.9 244.1,183.3 248.2,179.4 C253,174.7 255.4,168.6 255.4,160.9 C255.4,152.9 253,146.7 248.2,142.3 C243.4,138 235.9,133.6 225.7,129.3 C221.3,127.4 218.3,125.5 216.7,123.6 C215.1,121.7 214.3,119.2 214.3,116.2 C214.3,113.2 215,110.8 216.5,108.8 C218,106.9 220.3,105.9 223.4,105.9 C226.5,105.9 228.9,107.1 230.8,109.4 C232.3,111.3 233.2,113.9 233.5,117.4 C233.6,119 235.1,120.1 236.6,120.1 L252.4,119.9 C254.1,119.9 255.6,118.4 255.5,116.7 C255.1,109.8 252.9,104 248.8,99.3 C244.6,94.4 239.1,91.3 232.2,89.9 L232.2,78 C232.3,76.5 231.1,75.4 229.7,75.4 Z" id="Shape" fill="#FFC61B" fill-rule="nonzero"></path>
        </g>
    </g>
</svg>