<?xml version="1.0" encoding="UTF-8"?>
<svg width="253px" height="251px" viewBox="0 0 253 251" version="1.1" xmlns="http://www.w3.org/2000/svg" xmlns:xlink="http://www.w3.org/1999/xlink">
    <title>coin-up</title>
    <g id="Page-1" stroke="none" stroke-width="1" fill="none" fill-rule="evenodd">
        <g id="coin-up">
            <rect id="rect9052" x="1.04" y="0" width="251" height="251"></rect>
            <g id="g9054" transform="translate(0.515650, 4.723050)">
                <path d="M120.630066,0.5835018 C54.2478051,0.5835018 0.4525116,54.3835586 0.4525116,120.761056 C0.4525116,187.143317 54.2525684,240.956473 120.630066,240.956473 C123.842601,240.956473 127.02596,240.831735 130.175084,240.584342 C68.2583978,235.719782 19.5240893,183.925126 19.5240893,120.758079 C19.5240893,57.5910322 68.2595886,5.81417865 130.175084,0.94967895 C127.026139,0.702280141 123.842303,0.5775477 120.630066,0.5775477 L120.630066,0.5835018 Z" id="path9056" fill="#D5B04F" fill-rule="nonzero"></path>
                <path d="M103.303635,1.8279087 C95.625823,2.93703845 88.1861751,4.77238977 81.0501862,7.26102495 C86.1385006,7.56174868 92.2063834,7.74197333 98.745176,7.76340214 C105.320884,5.37884463 112.159168,3.54295743 119.212395,2.33028589 C114.597253,2.0536584 109.168423,1.87701812 103.303635,1.8279087 Z M81.1621233,15.5967226 C73.7986879,15.5967226 67.0062506,15.8062838 61.4391671,16.1549618 C59.0670536,17.499993 56.7482889,18.9176642 54.480015,20.4158349 C58.8864062,20.9048153 65.005673,21.2675093 72.04461,21.4392256 C75.1009091,19.353028 78.246996,17.3994283 81.4967437,15.5967226 C81.3840922,15.5967226 81.2747749,15.5967226 81.1618852,15.5967226 L81.1621233,15.5967226 Z M60.13641,29.403132 C53.1754717,29.4650904 46.8480496,29.7179729 41.771584,30.0915451 C40.2258401,31.4372908 38.7062942,32.8188801 37.2315827,34.2408383 C41.7776571,34.7304796 48.0793575,35.0861419 55.2796506,35.2455927 C57.3291114,33.2221513 59.4531175,31.2761133 61.6433927,29.403132 C61.1424743,29.4055137 60.6311957,29.3989642 60.1362314,29.403132 L60.13641,29.403132 Z M45.6608021,43.1719883 C39.1732147,43.229743 33.2286413,43.4515511 28.3379435,43.7859751 C27.126046,45.2376442 25.9648179,46.724383 24.821333,48.2329733 C29.6977409,48.6702007 36.0924443,48.9791411 43.2605853,49.0888752 C44.762507,47.0713879 46.3081318,45.089268 47.9308027,43.1719883 C47.1707023,43.1696066 46.4063149,43.1653792 45.6608616,43.1719883 L45.6608021,43.1719883 Z M37.8645035,56.9408148 C30.5945474,56.954658 23.9009482,57.1641531 18.4392523,57.517648 C17.5018388,59.0292153 16.5938981,60.5582282 15.7226942,62.1134987 C20.7846318,62.5179607 27.2194659,62.7982797 34.3661721,62.876338 C35.4767904,60.8596248 36.6432581,58.8848284 37.8642058,56.9408148 L37.8645035,56.9408148 Z M26.7565346,70.7281585 C21.139913,70.7281585 15.8516004,70.8516882 11.1829906,71.0630766 C10.406576,72.7703552 9.68517722,74.5054395 8.98741625,76.2543373 C14.163494,76.5334596 20.2341157,76.6822883 26.7568323,76.6822883 C27.1331909,76.6822883 27.4997253,76.6834791 27.873226,76.6822883 C28.6644068,74.6762329 29.5092936,72.6984 30.4037185,70.7467651 C29.2058727,70.7355713 27.9883188,70.7281585 26.7568323,70.7281585 L26.7565346,70.7281585 Z M17.9926948,84.5154724 C13.7468856,84.5154724 9.70339677,84.5955194 5.9541,84.7201446 C5.38685289,86.5275117 4.87426442,88.3660187 4.39114875,90.2091103 C8.56074544,90.3688648 13.1532023,90.4696022 17.9926948,90.4696022 C19.8334643,90.4696022 21.6270774,90.4570986 23.3885979,90.4323891 C23.9023177,88.456521 24.4714105,86.5062556 25.0817653,84.5712921 C22.7930093,84.5286608 20.4261355,84.5154724 17.9928139,84.5154724 L17.9926948,84.5154724 Z M7.49859354,98.3027864 C5.79732855,98.3179098 4.16721505,98.3592313 2.54924792,98.3958192 C2.1908111,100.300119 1.8864375,102.210373 1.61891979,104.145217 C4.59126605,104.219638 7.71472737,104.256857 10.9597119,104.256857 C14.338485,104.256857 17.5901976,104.20708 20.6720398,104.126611 C20.935985,102.220584 21.2501234,100.327954 21.6023679,98.4516389 C18.2491379,98.3547419 14.6813221,98.3027864 10.9594142,98.3027864 C9.78627784,98.3027864 8.64124487,98.2926049 7.49859354,98.3027864 Z M10.9594142,112.071613 C7.40505463,112.071613 3.98359061,112.113202 0.763017915,112.201889 C0.63053919,114.084575 0.547300872,115.971251 0.50252604,117.87686 C3.80020433,117.970304 7.30687152,118.025713 10.9591165,118.025713 C13.9422992,118.025713 16.8160455,117.995942 19.5741037,117.93268 C19.6187595,115.995275 19.6993185,114.078353 19.8346552,112.164646 C16.998896,112.097477 14.0362549,112.071613 10.9594737,112.071613 L10.9594142,112.071613 Z M10.9594142,125.858957 C7.33509395,125.858957 3.8526004,125.915759 0.576654585,126.007809 C0.65852346,127.911692 0.77939169,129.802893 0.948785835,131.682781 C4.1152953,131.768222 7.47328862,131.813027 10.9588188,131.813027 C14.1096689,131.813027 17.1421516,131.771705 20.0388213,131.701387 C19.867105,129.798695 19.7301012,127.879153 19.6480537,125.951989 C16.8679058,125.88762 13.9687949,125.858957 10.9586401,125.858957 L10.9594142,125.858957 Z M10.9594142,139.646271 C7.83541698,139.646271 4.82728658,139.688723 1.95383792,139.75791 C2.26148626,141.695612 2.61533842,143.620216 3.01444175,145.525944 C5.56845294,145.57965 8.21761066,145.600371 10.9595928,145.600371 C14.8631603,145.600371 18.5933444,145.539061 22.0866149,145.432912 C21.6964427,143.562848 21.3281816,141.677363 21.0260706,139.776517 C17.8424728,139.690128 14.4658432,139.646271 10.9600691,139.646271 L10.9594142,139.646271 Z M7.49859354,153.433585 C6.62881861,153.441325 5.81727478,153.457341 4.96810104,153.470798 C5.52790552,155.454585 6.13385428,157.428309 6.79154417,159.369048 C8.15932002,159.383755 9.54644669,159.387625 10.9594142,159.387625 C16.2826177,159.387625 21.300495,159.281088 25.7886956,159.08992 C25.186617,157.299879 24.6143685,155.502039 24.0954687,153.675381 C20.0512058,153.52679 15.6168303,153.433495 10.9595332,153.433495 C9.78639692,153.433495 8.64136395,153.423314 7.49871262,153.433495 L7.49859354,153.433585 Z M20.6160712,167.202441 C16.8383139,167.202441 13.2192928,167.251622 9.824265,167.351293 C10.6345585,169.276492 11.4858757,171.190914 12.3920302,173.063538 C15.0312445,173.121173 17.7736435,173.156571 20.6158331,173.156571 C24.4075826,173.156571 28.0376187,173.108104 31.4451502,173.007718 C30.5382812,171.131938 29.6880953,169.224066 28.877385,167.295474 C26.2261434,167.237362 23.4719553,167.202441 20.6160712,167.202441 Z M24.1327413,180.989755 C21.5584862,180.989755 19.0642542,181.016667 16.6532009,181.064181 C17.8091299,183.053565 19.0353768,185.01038 20.3000872,186.925278 C21.5588434,186.937662 22.8367719,186.943855 24.133039,186.943855 C29.5443633,186.943855 34.6438118,186.824701 39.1855992,186.627543 C38.0125225,184.84042 36.8777901,183.027575 35.7991453,181.17585 C32.1548193,181.058929 28.2386292,180.989755 24.1326818,180.989755 L24.1327413,180.989755 Z M39.929564,194.777039 C35.0169552,194.777039 30.3613253,194.87321 26.1422501,195.037561 C27.6453626,196.947636 29.2171855,198.805375 30.8311038,200.619529 C33.7331917,200.690133 36.7722239,200.731169 39.929564,200.731169 C43.3954457,200.731169 46.7333141,200.685441 49.8842238,200.600923 C48.2130866,198.72169 46.5987515,196.796253 45.0465176,194.814252 C43.3735346,194.792043 41.6732818,194.777039 39.9297427,194.777039 L39.929564,194.777039 Z M48.6934038,208.545925 C45.2141255,208.545925 41.8628603,208.591057 38.7018286,208.676171 C40.8622143,210.691157 43.0957163,212.628383 45.4001911,214.481418 C46.4834205,214.490528 47.5831428,214.499995 48.6935825,214.499995 C54.2439945,214.499995 59.4693126,214.39044 64.0998162,214.183684 C61.9165668,212.413887 59.7891669,210.573415 57.7360741,208.657564 C54.8504791,208.587824 51.8307382,208.545925 48.692987,208.545925 L48.6934038,208.545925 Z M70.6491476,222.333179 C65.7073041,222.333179 61.0261312,222.427528 56.7874074,222.593731 C60.041978,224.639143 63.39884,226.536655 66.8534088,228.268703 C68.1000187,228.280849 69.3658009,228.287279 70.6491476,228.287279 C75.9357334,228.287279 80.9223517,228.178278 85.3855451,227.989574 C82.0012346,226.270507 78.6955183,224.391095 75.5053115,222.370393 C73.9154478,222.350387 72.3017676,222.333179 70.648969,222.333179 L70.6491476,222.333179 Z M100.029059,236.120553 C95.6087348,236.120553 91.3997815,236.209269 87.5254486,236.343832 C98.0427709,239.351664 109.161457,240.958259 120.64513,240.958259 C123.336859,240.958259 125.998283,240.871687 128.646249,240.697767 C129.016178,240.647157 129.37128,240.60137 129.706794,240.548915 C121.574684,239.877233 113.66883,238.386683 106.076162,236.176402 C104.109761,236.145441 102.096679,236.120434 100.029178,236.120434 L100.029059,236.120553 Z" id="path9058" fill="#C89C31"></path>
                <path d="M251.469222,120.770481 C251.469222,187.149966 197.657056,240.962132 131.27757,240.962132 C64.8980847,240.962132 11.0859188,187.149966 11.0859188,120.770481 C11.0859188,54.3909949 64.8980847,0.578829022 131.27757,0.578829022 C197.657056,0.578829022 251.469222,54.3909949 251.469222,120.770481 Z" id="path9060" fill="#EED175" fill-rule="nonzero"></path>
                <path d="M248.433489,121.654547 C248.433489,186.337542 195.996626,238.774405 131.313631,238.774405 C66.6306374,238.774405 14.1937742,186.337542 14.1937742,121.654547 C14.1937742,56.9715534 66.6306374,4.53469019 131.313631,4.53469019 C195.996626,4.53469019 248.433489,56.9715534 248.433489,121.654547 Z" id="path9062" fill="#C89C31" fill-rule="nonzero"></path>
                <path d="M244.657925,121.925339 C244.657925,184.541987 193.896196,235.303716 131.279549,235.303716 C68.6629008,235.303716 17.9011722,184.541987 17.9011722,121.925339 C17.9011722,59.3086915 68.6629008,8.54696289 131.279549,8.54696289 C193.896196,8.54696289 244.657925,59.3086915 244.657925,121.925339 Z" id="path9064" fill="#EBC859" fill-rule="nonzero"></path>
                <path d="M48.883161,43.0540971 C5.87848293,88.5678329 6.68407266,160.081933 52.1979871,203.088397 C64.4902265,214.70306 77.7398853,224.472547 93.9916012,228.81904 C84.0095526,223.648023 75.5237693,216.544067 66.9433157,208.43637 C17.5689415,161.783614 15.2760176,84.0373582 61.8111792,34.7909971 C66.3033095,30.0367674 71.3294035,26.5796978 76.3499006,22.7053649 C66.4911018,28.2007611 57.046113,34.4152934 48.8830419,43.0540971 L48.883161,43.0540971 Z" id="path9066" fill="#D2AA48" fill-rule="nonzero"></path>
                <path d="M200.05776,212.394655 C249.91263,174.508121 259.62853,103.381038 221.741401,53.527359 C211.509281,40.0627573 198.834788,29.5412672 184.827172,22.0807798 C193.831558,28.8112945 202.082154,36.8838633 209.225288,46.2830055 C250.325845,100.367073 239.902597,177.445874 185.954879,218.439853 C180.747185,222.397424 175.325024,225.866402 169.740078,228.869054 C180.363383,225.055989 190.594909,219.587803 200.058355,212.395846 L200.05776,212.394655 Z" id="path9068" fill="#F7E587" fill-rule="nonzero"></path>
                <path d="M135.336693,8.99545428 C113.920391,8.99545428 94.4504837,11.0973111 75.2776863,23.5460839 C45.3684558,42.9671672 28.2146937,80.9364629 28.2146937,119.966779 C28.2146937,129.390929 29.3724089,138.541785 31.5343426,147.275259 C52.2831903,173.303607 77.8054399,176.630758 106.168986,176.630758 C165.593286,176.630758 212.52112,127.49812 212.52112,66.473954 C212.52112,57.0629036 211.031702,48.4395805 208.875544,39.7168241 C189.650946,21.2853121 163.70536,8.99545428 135.330501,8.99545428 L135.336693,8.99545428 Z" id="path9070" fill="#F7E587" fill-rule="nonzero" opacity="0.5"></path>
                <path d="M102.291438,104.321786 L102.291438,98.5771513 C102.291438,98.5771513 120.428817,89.5203698 126.371605,82.6868493 C135.055064,72.702419 137.092557,59.1610093 139.440259,46.4930662 C141.073587,37.6809982 142.285306,29.8305173 148.586947,27.6072564 C150.410748,26.9637968 154.720266,31.575545 154.720266,31.575545 C154.720266,31.575545 149.017309,30.3406051 147.410417,36.9831181 C145.950114,43.0205755 143.901964,51.6718828 142.688816,58.0499147 C141.004877,66.903066 138.256286,76.7386438 132.216149,83.8847546 C124.328753,93.2166156 102.290843,104.321786 102.290843,104.321786 L102.291438,104.321786 Z" id="path9072" fill="#B58A32" fill-rule="nonzero"></path>
                <path d="M160.16529,87.1918404 C160.16529,87.1918404 180.259782,85.8313285 190.375798,88.8321949 C196.880057,90.7616806 203.173541,92.0433006 205.412282,97.9330368 C206.855556,101.730085 204.505056,109.261903 204.505056,109.261903 C204.505056,109.261903 204.165434,103.531796 202.422252,101.186357 C199.313557,97.0041377 193.638764,95.0839999 188.59445,93.7746934 C179.165538,91.3276178 159.814117,92.4472268 159.814117,92.4472268 L160.16529,87.1918404 Z" id="path9074" fill="#B58A32" fill-rule="nonzero"></path>
                <path d="M184.934346,119.278485 C184.934346,119.278485 182.975745,115.460359 184.415327,114.069839 C187.216672,111.363998 193.024956,113.160588 196.957043,111.990726 C200.380889,110.97198 203.938226,108.124848 203.938226,108.124848 L200.011199,114.706511 L184.934346,119.278485 Z" id="path9076" fill="#B58A32" fill-rule="nonzero"></path>
                <path d="M187.613691,142.130321 C187.613691,142.130321 186.867285,140.197323 188.498708,138.701117 C192.079028,135.41755 197.005927,138.28274 202.831418,136.598426 C204.8314,136.020158 208.267988,134.62887 209.074292,133.336056 C210.129835,131.643603 209.606469,137.850574 208.189334,139.254253 C203.269223,144.127624 187.613751,142.130381 187.613751,142.130381 L187.613691,142.130321 Z" id="path9078" fill="#B58A32" fill-rule="nonzero"></path>
                <path d="M183.148116,165.750236 C183.148116,165.750236 182.131751,163.351269 183.479938,161.878523 C186.444901,158.639671 191.576323,161.302356 196.153835,160.0861 C198.314816,159.511929 202.617011,157.066538 202.617011,157.066538 L199.256219,164.161444 L183.148116,165.750236 Z" id="path9080" fill="#B58A32" fill-rule="nonzero"></path>
                <path d="M102.41052,175.068402 L102.459344,170.529711 C102.459344,170.529711 120.175768,169.260059 130.167939,173.951056 C139.688545,178.420739 148.439881,180.992375 157.838428,181.22518 C165.257832,181.408786 177.32322,179.176255 184.728334,176.357703 C189.155207,174.672693 191.413598,171.593351 191.413598,171.593351 L189.136393,178.829369 C189.136393,178.829369 173.038888,184.872781 164.578707,185.687897 C156.330492,186.482769 147.880434,185.532042 139.800125,183.696727 C132.174113,181.96462 125.576375,176.769727 117.897372,175.289538 C112.827873,174.312529 102.41052,175.068301 102.41052,175.068301 L102.41052,175.068402 Z" id="path9082" fill="#B58A32" fill-rule="nonzero"></path>
                <path d="M102.589143,103.607294 L103.150079,108.733774 C103.150079,108.733774 117.628068,103.318401 124.087076,98.4379445 C132.329932,92.2099559 138.530532,84.7494686 142.617426,75.2616102 C148.064237,62.6174835 147.986952,46.4235223 150.338703,34.331936 C150.651293,32.7246267 152.273904,27.7395565 158.586322,38.995068 C163.054517,46.9622493 164.375732,51.9857234 164.31494,59.725458 C164.2242,71.2853432 160.552366,77.8217541 158.892065,84.4742701 C157.550071,89.8512392 157.074219,93.1541571 158.063314,94.4366702 C159.764698,96.6426047 165.277302,96.3771114 171.661883,96.1987266 C179.510578,95.9794311 188.906743,96.5634807 196.052258,99.8191171 C199.944573,101.592605 204.98579,105.971489 204.98579,105.971489 L203.253802,100.509852 L189.758239,93.8728169 L159.66979,91.8816468 L160.333493,83.032068 L165.200791,56.261839 C165.200791,56.261839 160.664779,40.8502465 155.908823,33.0313224 C154.239532,30.2871968 147.346827,26.6223292 146.833584,29.7932447 C145.729991,36.6089029 145.670391,50.5587638 141.97093,61.1290776 C139.268662,68.8503544 136.628911,77.0027082 131.351197,83.2533223 C123.774009,92.2273419 102.589143,103.607413 102.589143,103.607413 L102.589143,103.607294 Z" id="path9084" fill="#F7E587" fill-rule="nonzero" opacity="0.91661"></path>
                <path d="M184.993887,119.093908 C184.993887,119.093908 184.392463,121.954556 185.846455,123.146626 C188.926153,125.671402 195.577836,124.414194 200.58047,125.97137 C205.89254,127.625002 210.657785,134.801896 210.657785,134.801896 L207.007326,123.739773 L195.281321,121.527349 L184.993887,119.093908 Z" id="path9086" fill="#F7E587" fill-rule="nonzero" opacity="0.91661"></path>
                <path d="M188.268642,143.237784 C188.268642,143.237784 187.284429,145.012939 188.765095,147.132301 C190.098694,149.041185 195.286621,149.030051 197.336617,150.134835 C201.48597,152.371075 204.36186,153.371007 204.36186,153.371007 L196.783481,145.669974 L188.268642,143.237784 Z" id="path9088" fill="#F7E587" fill-rule="nonzero" opacity="0.91661"></path>
                <path d="M184.398477,164.553462 C184.398477,164.553462 182.221539,165.95077 182.58337,168.048757 C183.00367,170.485234 186.771067,171.013541 188.736337,172.514034 C190.396042,173.781364 191.564713,172.744958 191.564713,172.744958 L187.057519,167.941726 L184.398477,164.553462 Z" id="path9090" fill-opacity="0.66667" fill="#864E01" fill-rule="nonzero" opacity="0.91661"></path>
                <path d="M100.862454,175.735261 L100.751827,179.202453 C100.751827,179.202453 114.385525,178.812299 120.995171,179.976784 C129.45297,181.466916 136.653859,187.550399 145.110467,189.047855 C152.953208,190.436649 160.644119,190.354244 168.561881,189.490334 C177.183418,188.549705 186.360472,186.197717 191.681651,179.976873 C193.336653,178.041969 193.562194,173.965614 193.562194,173.965614 L185.376497,180.160259 C185.376497,180.160259 170.946736,184.669537 163.473745,185.248812 C156.469937,185.79173 149.316086,185.211718 142.455772,183.70015 C136.530014,182.394476 131.352567,178.558487 125.420497,177.284012 C117.401515,175.561491 100.862811,175.735351 100.862811,175.735351 L100.862454,175.735261 Z" id="path9092" fill="#F7E587" fill-rule="nonzero" opacity="0.91661"></path>
                <path d="M150.817353,27.2578698 C146.157377,26.3427842 143.489047,37.7037428 142.841836,43.5721038 C141.155397,58.8556831 138.736186,75.6129021 126.935458,86.619056 C119.911406,93.456149 111.340479,98.5981098 102.27298,102.242614 C101.907041,127.057517 101.541162,151.87242 101.175223,176.686727 C112.405251,175.559556 123.772223,177.119905 134.297286,182.136991 C149.476073,189.372413 168.551818,187.981059 184.059867,182.095252 C189.778066,179.925043 200.202028,170.03165 188.744791,167.313008 C185.92362,166.64347 195.085908,166.001082 198.074866,165.480396 C205.728862,164.147094 209.5246,151.569237 202.394923,146.991129 C200.027573,145.229847 189.85797,143.324118 197.236946,143.451119 C205.748332,143.636911 214.045965,138.234018 211.412467,128.523595 C209.431657,121.220891 201.428037,118.825557 193.796667,118.956547 C188.844165,119.041554 199.284382,118.781693 202.157414,115.901082 C207.738311,110.305657 207.301518,100.398391 201.29264,96.633614 C190.794967,90.0567152 177.289877,90.3371533 165.128628,90.6964237 C159.695869,90.856976 159.06914,89.7830052 161.477097,85.2998656 C165.449316,72.9713061 168.758366,59.2971201 163.699703,46.7452819 C160.918186,39.8432891 155.924244,28.2613738 151.847472,27.4605474 L150.817353,27.2578698 Z M150.835811,29.9372148 C157.456175,33.9356311 159.400784,42.6914924 161.837797,49.7393606 C166.531116,63.3141132 161.113719,77.5551295 156.916673,90.5243502 C156.762879,93.7745743 160.866921,93.3585018 163.091075,93.3602285 C175.36962,93.3698146 188.922343,92.4589563 199.661157,98.780722 C205.724217,102.349967 204.39687,115.733236 194.916811,115.653451 C191.676531,115.626062 185.839191,114.256559 184.866291,118.640742 C184.651407,121.985279 188.92401,121.746222 191.156797,121.835235 C198.73339,122.137287 208.487396,122.379732 208.982182,131.317735 C209.434455,139.492714 201.736042,140.073835 195.839102,140.387616 C193.263656,140.524524 188.287516,139.211026 187.905859,143.002775 C187.563379,146.401852 192.480036,146.171726 195.880185,147.247989 C206.297478,150.545489 204.054569,159.333621 196.515666,162.336274 C192.426271,163.965078 187.510685,162.003708 184.048971,164.342865 C181.622795,165.982267 183.78967,168.28567 187.235963,169.279469 C189.835285,170.029031 190.933221,171.30166 190.741916,174.075556 C190.558232,176.739599 185.075577,179.235975 181.331461,180.370826 C166.69271,184.806869 149.446064,186.28551 135.447975,179.711945 C125.451637,175.017733 114.709249,172.711115 103.929351,173.822626 C104.276654,150.564721 104.624016,127.30622 104.971319,104.046528 C121.962534,97.2671898 137.601573,83.952036 141.997485,65.5485083 C145.355836,54.7805184 144.342805,43.146207 147.914015,32.4770552 C148.41791,31.2492603 149.656244,29.2237945 150.836108,29.9363812 L150.835811,29.9372148 Z" id="path9094" stroke="#D2AA48" stroke-width="0.999991095" fill="#D2AA48" fill-rule="nonzero"></path>
                <polygon id="path9096" fill="#F7E587" fill-rule="nonzero" opacity="0.91661" points="61.446312 102.172356 61.4462525 107.260908 97.7299424 99.7384985 97.7299424 93.76475"></polygon>
                <polygon id="path9098" fill="#B58A32" fill-rule="nonzero" points="59.898246 96.7481709 99.1685125 87.4562024 98.9473177 94.9786124 60.3409333 103.828191"></polygon>
                <polygon id="path9100" fill="#F7E485" fill-rule="nonzero" opacity="0.91661" points="60.255492 172.93088 60.255492 180.342544 99.304266 186.869428 99.304266 178.904629"></polygon>
                <polygon id="path9102" fill="#B58A32" fill-rule="nonzero" points="61.208148 170.221765 98.265871 175.955027 98.2658114 181.707283 60.9865959 175.955027"></polygon>
                <path d="M99.314388,91.9134417 L60.4269701,100.770165 L60.4269701,176.911196 L99.314388,183.051064 L99.314388,91.9176096 L99.314388,91.9134417 Z M96.430341,95.5044785 L96.430341,179.659728 L63.3106598,174.44989 L63.3106598,103.036415 L96.430341,95.500906 L96.430341,95.5044785 Z" id="path9104" stroke="#D2AA48" stroke-width="0.999991095" fill="#D2AA48" fill-rule="nonzero"></path>
            </g>
        </g>
    </g>
</svg>