<?xml version="1.0" encoding="UTF-8"?>
<svg width="254px" height="251px" viewBox="0 0 254 251" version="1.1" xmlns="http://www.w3.org/2000/svg" xmlns:xlink="http://www.w3.org/1999/xlink">
    <title>coin-down</title>
    <g id="Page-1" stroke="none" stroke-width="1" fill="none" fill-rule="evenodd">
        <g id="coin-down">
            <rect id="rect8993" x="1.968" y="4.54747351e-13" width="251" height="251"></rect>
            <g id="g8995" transform="translate(0.898000, 4.930000)">
                <g id="g8997" transform="translate(0.377000, 0.000000)">
                    <path d="M120.9,0.4 C54.521,0.4 0.72,54.2 0.72,120.58 C0.72,186.959 54.52,240.78 120.9,240.78 C124.1125,240.78 127.2961,240.6553 130.445,240.4079 C68.528,235.5434 19.795,183.7489 19.795,120.5779 C19.795,57.4109 68.53,5.6379 130.445,0.7679 C127.2961,0.5205 124.1125,0.3958 120.9,0.3958 L120.9,0.4 Z" id="path8999" fill="#D5B04F" fill-rule="nonzero"></path>
                    <path d="M103.6,1.7 C95.9225,2.8092 88.483,4.6445 81.347,7.1331 C86.4353,7.4338 92.503,7.614 99.042,7.6355 C105.6178,5.2509 112.456,3.415 119.509,2.2024 C114.8939,1.9258 109.465,1.7491 103.6,1.7 Z M81.458,15.4689556 C74.0945,15.4689556 67.302,15.6785 61.735,16.0272 C59.3629,17.3722 57.0442,18.7898 54.7762,20.288 C59.1825,20.777 65.3022,21.1397 72.3402,21.3114 C75.3965,19.2252 78.5425,17.2716 81.7923,15.4689556 C81.6796,15.4689556 81.5703,15.4689556 81.4574,15.4689556 L81.458,15.4689556 Z M60.433,29.275 C53.4719,29.337 47.145,29.5898 42.069,29.9634 C40.5232,31.3091 39.0037,32.6907 37.529,34.1126 C42.0751,34.6023 48.377,34.9579 55.577,35.1174 C57.6264,33.0939 59.7504,31.1479 61.9404,29.275 L60.4332,29.275 L60.433,29.275 Z M45.957,43.044 C39.4696,43.102 33.525,43.3236 28.634,43.658 C27.4221,45.1097 26.2609,46.5964 25.1174,48.105 C29.9938,48.5422 36.3884,48.8511 43.5564,48.9609 C45.0583,46.9434 46.6039,44.9613 48.2266,43.044 C47.4665,43.044 46.7021,43.034 45.9567,43.044 L45.957,43.044 Z M38.1608,56.813 C30.8911,56.827 24.1978,57.0363 18.7358,57.3898 C17.7984,58.9013 16.8905,60.4303 16.0193,61.9856 C21.0812,62.39 27.5163,62.6703 34.6633,62.7484 C35.7739,60.7317 36.9404,58.7569 38.1613,56.813 L38.1608,56.813 Z M27.0528,70.6 C21.4362,70.6 16.1478,70.7235 11.4788,70.9349 C10.7024,72.6421 9.981,74.3772 9.2832,76.1261 C14.4593,76.4052 20.5302,76.554 27.0522,76.554 L28.1686,76.554 C28.9598,74.5479 29.8047,72.5701 30.6991,70.6186 C29.5012,70.6076 28.2837,70.5996 27.0522,70.5996 L27.0528,70.6 Z M18.2892,84.387 C14.0434,84.387 10,84.467 6.2512,84.5917 C5.6839,86.399 5.1713,88.2376 4.6882,90.0806 C8.8578,90.2403 13.4502,90.3411 18.2892,90.3411 C20.1299,90.3411 21.9235,90.3281 23.685,90.3041 C24.1987,88.3282 24.7678,86.378 25.3782,84.443 C23.0894,84.4 20.7226,84.387 18.2892,84.387 L18.2892,84.387 Z M7.7952,98.174 C6.094,98.189 4.4639,98.23 2.8459,98.267 C2.4875,100.1713 2.1831,102.0816 1.9156,104.0164 C4.8879,104.0904 8.0114,104.1281 11.256,104.1281 C14.6348,104.1281 17.8868,104.0781 20.9686,103.9978 C21.2325,102.0918 21.5467,100.1992 21.8989,98.3228 C18.5457,98.2258 14.978,98.174 11.2559,98.174 C10.0828,98.174 8.9378,98.164 7.7951,98.174 L7.7952,98.174 Z M11.256,111.943 C7.7017,111.943 4.2804,111.984 1.06,112.0732 C0.9275,113.9558 0.8443,115.8426 0.7995,117.7482 C4.0972,117.8412 7.6041,117.897 11.2565,117.897 C14.2397,117.897 17.1134,117.867 19.8713,117.804 C19.9163,115.8666 19.9965,113.9497 20.1318,112.036 C17.2961,111.969 14.3335,111.943 11.2565,111.943 L11.256,111.943 Z M11.256,125.73 C7.6317,125.73 4.1494,125.787 0.874,125.8789 C0.956,127.7828 1.0768,129.6739 1.2462,131.5538 C4.4126,131.6398 7.7705,131.6841 11.2562,131.6841 C14.4071,131.6841 17.4396,131.6431 20.3362,131.5724 C20.1644,129.6698 20.0274,127.7502 19.9454,125.8231 C17.1653,125.7591 14.2662,125.7301 11.2562,125.7301 L11.256,125.73 Z M11.256,139.517 C8.132,139.517 5.1242,139.56 2.2505,139.6286 C2.5582,141.5663 2.912,143.4909 3.3111,145.3966 C5.8651,145.4506 8.5142,145.4716 11.256,145.4716 C15.1596,145.4716 18.8897,145.4106 22.383,145.3041 C21.9928,143.434 21.6245,141.5486 21.3224,139.6477 C18.1389,139.5617 14.7624,139.5175 11.2564,139.5175 L11.256,139.517 Z M7.7952,153.304 C6.9255,153.314 6.1139,153.328 5.2647,153.341 C5.8246,155.3248 6.4305,157.2985 7.0882,159.2392 C8.4559,159.2542 9.8431,159.2582 11.256,159.2582 C16.5792,159.2582 21.597,159.1517 26.085,158.9605 C25.4829,157.1704 24.9107,155.3726 24.3918,153.546 C20.3475,153.3974 15.9134,153.3041 11.2558,153.3041 C10.0827,153.3041 8.9377,153.2941 7.795,153.3041 L7.7952,153.304 Z M20.9132,167.073 C17.1355,167.073 13.5167,167.122 10.1212,167.2219 C10.9315,169.1471 11.7828,171.0615 12.6889,172.9341 C15.3281,172.9921 18.0705,173.0271 20.9129,173.0271 C24.7047,173.0271 28.3347,172.9791 31.7419,172.8782 C30.8351,171.0024 29.9849,169.0946 29.1742,167.1661 C26.523,167.1081 23.7688,167.0731 20.9129,167.0731 L20.9132,167.073 Z M24.4299,180.86 C21.8556,180.86 19.3614,180.887 16.9501,180.934 C18.106,182.9234 19.3323,184.8802 20.597,186.7951 C21.8557,186.8071 23.1336,186.8141 24.4299,186.8141 C29.8412,186.8141 34.9409,186.695 39.4829,186.4978 C38.3098,184.7107 37.1751,182.8979 36.0965,181.0461 C32.4522,180.9292 28.5363,180.8601 24.4305,180.8601 L24.4299,180.86 Z M40.2269,194.647 C35.3143,194.647 30.6587,194.743 26.4399,194.9075 C27.943,196.8175 29.5148,198.6752 31.1287,200.4894 C34.0308,200.5604 37.0698,200.601 40.2273,200.601 C43.6931,200.601 47.0312,200.555 50.1817,200.4708 C48.5106,198.5915 46.8962,196.6662 45.344,194.6842 C43.671,194.6622 41.9708,194.6472 40.2273,194.6472 L40.2269,194.647 Z M48.9905,208.416 C45.5112,208.416 42.16,208.461 38.9988,208.5463 C41.1592,210.5613 43.3926,212.4985 45.6971,214.3515 C46.7803,214.3615 47.88,214.3705 48.9905,214.3705 C54.5409,214.3705 59.7665,214.2609 64.3965,214.0542 C62.2133,212.2843 60.0859,210.4439 58.0331,208.528 C55.1475,208.458 52.1278,208.4164 48.9904,208.4164 L48.9905,208.416 Z M70.9465,222.203 C66.0047,222.203 61.3236,222.297 57.0845,222.4635 C60.3391,224.5089 63.6961,226.4064 67.1505,228.1385 C68.3971,228.1505 69.6628,228.1565 70.9462,228.1565 C76.2327,228.1565 81.2192,228.0475 85.6822,227.8588 C82.2979,226.1398 78.9925,224.2604 75.8022,222.2397 C74.2123,222.2197 72.5987,222.2027 70.9459,222.2027 L70.9465,222.203 Z M100.3265,235.99 C95.9062,235.99 91.6975,236.079 87.8225,236.2132 C98.3395,239.221 109.4585,240.8276 120.9415,240.8276 C123.6333,240.8276 126.2947,240.7406 128.9424,240.5671 C129.3123,240.5161 129.6674,240.4711 130.0029,240.4183 C121.8709,239.7466 113.9649,238.2561 106.3729,236.0458 C104.4065,236.0148 102.3935,235.9898 100.3258,235.9898 L100.3265,235.99 Z" id="path9001" fill="#C89C31"></path>
                    <path d="M251.758315,120.624246 C251.758315,187.003772 197.946116,240.815971 131.566589,240.815971 C65.187063,240.815971 11.374864,187.003772 11.374864,120.624246 C11.374864,54.244719 65.187063,0.43252 131.566589,0.43252 C197.946116,0.43252 251.758315,54.244719 251.758315,120.624246 Z" id="path9003" fill="#EED175" fill-rule="nonzero"></path>
                    <path d="M248.712147,121.446768 C248.712147,186.129174 196.275761,238.56556 131.593355,238.56556 C66.9109494,238.56556 14.4745632,186.129174 14.4745632,121.446768 C14.4745632,56.7643622 66.9109494,4.327976 131.593355,4.327976 C196.275761,4.327976 248.712147,56.7643622 248.712147,121.446768 Z" id="path9005" fill="#C89C31" fill-rule="nonzero"></path>
                    <path d="M244.880209,121.788101 C244.880209,184.404999 194.118278,235.166931 131.50138,235.166931 C68.8844818,235.166931 18.1225504,184.404999 18.1225504,121.788101 C18.1225504,59.1712034 68.8844818,8.409272 131.50138,8.409272 C194.118278,8.409272 244.880209,59.1712034 244.880209,121.788101 Z" id="path9007" fill="#EBC859" fill-rule="nonzero"></path>
                    <path d="M49.1,42.9 C6.095,88.413 6.902,159.93 52.4148,202.93 C64.7068,214.544 77.9568,224.314 94.2078,228.66 C84.2259,223.4891 75.7398,216.385 67.1598,208.278 C17.7858,161.625 15.4928,83.878 62.0277,34.628 C66.5198,29.8738 71.5461,26.4168 76.5667,22.543 C66.7079,28.0384 57.2627,34.253 49.0997,42.892 L49.1,42.9 Z" id="path9009" fill="#D2AA48" fill-rule="nonzero"></path>
                    <path d="M200.3,212.2 C250.155,174.314 259.87,103.19 221.983,53.33 C211.751,39.866 199.077,29.344 185.069,21.884 C194.0734,28.6145 202.324,36.687 209.467,46.086 C250.567,100.17 240.144,177.246 186.197,218.246 C180.9894,222.2035 175.567,225.6724 169.982,228.675 C180.605,224.862 190.837,219.3937 200.3,212.202 L200.3,212.2 Z" id="path9011" fill="#F7E587" fill-rule="nonzero"></path>
                    <path d="M135.6,8.8 C114.184,8.8 94.714,10.9007 75.543,23.349 C45.634,42.77 28.48,80.739 28.48,119.77 C28.48,129.1942 29.6377,138.345 31.7996,147.078 C52.5486,173.106 78.0706,176.433 106.4366,176.433 C165.8606,176.433 212.7866,127.301 212.7866,66.273 C212.7866,56.8619 211.2971,48.239 209.141,39.516 C189.917,21.085 163.971,8.795 135.596,8.795 L135.6,8.8 Z" id="path9013" fill="#F7E587" fill-rule="nonzero" opacity="0.5"></path>
                </g>
                <g id="g9015" transform="translate(59.511000, 50.860000)" fill-rule="nonzero">
                    <path d="M43.1,86.2 L43.5425,91.9522 C43.5425,91.9522 61.2695,101.2877 67.1045,108.2132 C75.6303,118.3322 77.4555,131.9042 79.6045,144.6072 C81.0995,153.4439 82.1881,161.3122 88.454,163.6332 C90.2675,164.3052 94.6487,159.7615 94.6487,159.7615 C94.6487,159.7615 88.9271,160.907 87.4247,154.2401 C86.0591,148.1808 84.1468,139.4981 83.0337,133.1021 C81.4886,124.224 78.8945,114.3461 72.9677,107.1061 C65.2276,97.6522 43.1007,86.1991 43.1007,86.1991 L43.1,86.2 Z" id="path9017" fill="#F7E383"></path>
                    <path d="M101.2,103.6 C101.2,103.6 121.294,104.9605 131.41,101.9597 C137.9144,100.0302 144.208,98.7486 146.446,92.8588 C147.8892,89.0618 145.5388,81.5298 145.5388,81.5298 C145.5388,81.5298 145.1991,87.2599 143.456,89.6051 C140.3473,93.7873 134.6724,95.7076 129.628,97.0166 C120.1988,99.4637 100.848,98.3441 100.848,98.3441 L101.2,103.6 Z" id="path9019" fill="#F7E383"></path>
                    <path d="M125.8,71.2 C125.8,71.2 123.8414,75.0181 125.2809,76.4086 C128.0823,79.1144 133.8906,77.3178 137.8229,78.4877 C141.2467,79.5064 144.8041,82.3535 144.8041,82.3535 L140.8771,75.7717 L125.8,71.2 Z" id="path9021" fill="#F7E383"></path>
                    <path d="M128.4,48.4 C128.4,48.4 127.6536,50.3331 129.285,51.8293 C132.8653,55.1128 137.7919,52.2476 143.617,53.932 C145.617,54.5102 149.0535,55.9015 149.8598,57.1943 C150.9154,58.8868 150.392,52.6798 148.9749,51.2762 C144.0548,46.4028 128.3999,48.4 128.3999,48.4 L128.4,48.4 Z" id="path9023" fill="#F7E383"></path>
                    <path d="M124,24.8 C124,24.8 122.9836,27.1989 124.3318,28.6716 C127.2967,31.9105 132.4284,29.2478 137.0058,30.4641 C139.1667,31.0382 143.4691,33.4836 143.4691,33.4836 L140.1084,26.3889 L124,24.8 Z" id="path9025" fill="#F7E383"></path>
                    <path d="M97.6,0.4 C93.7073,0.445 89.8366,0.7662 85.915,1.4606 C77.4584,2.9581 70.259,9.0503 61.801,10.5405 C55.1915,11.705 41.557,11.3033 41.557,11.3033 L41.6686,14.7828 C41.6686,14.7828 58.2096,14.9423 66.2286,13.2198 C72.1611,11.9455 77.3276,8.1249 83.2536,6.8192 C90.1139,5.3075 97.2746,4.7133 104.2786,5.2563 C111.7515,5.8355 123.1146,7.9238 126.1786,10.3544 C131.1652,14.3099 133.8218,15.8417 129.5649,18.0016 C127.5999,19.5022 123.8265,20.0307 123.4062,22.4672 C123.0444,24.5652 125.2296,25.9652 125.2296,25.9652 L127.8718,22.5789 C129.2291,21.6026 131.9279,20.0357 133.0257,17.0155 C133.0257,17.0155 133.1987,16.2781 133.3049,15.2852 C133.4647,13.7897 133.4808,11.7033 132.4862,10.5405 C127.1653,4.3198 117.9802,1.9546 109.3582,1.014 C105.3992,0.582 101.4916,0.355 97.5992,0.4 L97.6,0.4 Z" id="path9027" fill="#B58A32" opacity="0.91661"></path>
                    <path d="M43.2,15.4 L43.249,19.9386 C43.249,19.9386 60.965,21.2083 70.957,16.5173 C80.4778,12.0477 89.229,9.4759 98.628,9.2432 C106.0473,9.0596 118.113,11.2922 125.517,14.1107 C129.9439,15.7957 132.2023,18.875 132.2023,18.875 L129.9251,11.6389 C129.9251,11.6389 113.8271,5.5958 105.3671,4.7805 C97.1191,3.9856 88.6691,4.9364 80.5881,6.7717 C72.9621,8.5037 66.3641,13.6988 58.6851,15.1787 C53.6157,16.1558 43.1981,15.4 43.1981,15.4 L43.2,15.4 Z" id="path9029" fill="#F7E383"></path>
                    <path d="M43.4,86.9 L43.9609,81.7735 C43.9609,81.7735 58.4389,87.1889 64.8979,92.0695 C73.1407,98.2975 79.3409,105.7575 83.4279,115.2455 C88.8747,127.8895 88.7974,144.0835 91.149,156.1745 C91.4616,157.7818 93.0842,162.7666 99.3964,151.5114 C103.8646,143.5443 105.1858,138.5214 105.125,130.7814 C105.034,119.2214 101.3625,112.6854 99.7022,106.0334 C98.3602,100.6564 97.8843,97.3533 98.8734,96.0709 C100.5748,93.865 106.0872,94.1304 112.4714,94.3088 C120.3201,94.5282 129.7164,93.9441 136.8614,90.6885 C140.7537,88.915 145.7948,84.5364 145.7948,84.5364 L144.0628,89.998 L130.5668,96.6351 L100.4788,98.6263 L101.1424,107.4758 L106.0097,134.2458 C106.0097,134.2458 101.4737,149.6578 96.7177,157.4758 C95.0484,160.2199 88.1556,163.8845 87.6422,160.7138 C86.5386,153.898 86.479,139.9488 82.7796,129.3788 C80.0773,121.6578 77.4376,113.5048 72.1596,107.2548 C64.5824,98.281 43.3986,86.9008 43.3986,86.9008 L43.4,86.9 Z" id="path9031" fill-opacity="0.91765" fill="#B58A32" opacity="0.91661"></path>
                    <path d="M125.8,71.4 C125.8,71.4 125.1986,68.5394 126.6526,67.3474 C129.7322,64.8227 136.3842,66.0798 141.3866,64.5227 C146.6987,62.8691 151.4646,55.6921 151.4646,55.6921 L147.8142,66.7541 L136.0882,68.9665 L125.8,71.4 Z" id="path9033" fill="#B58A32" opacity="0.91661"></path>
                    <path d="M129.1,47.3 C129.1,47.3 128.1158,45.5248 129.5965,43.4055 C130.93,41.4966 136.1179,41.5077 138.1678,40.403 C142.3171,38.1668 145.1931,37.1668 145.1931,37.1668 L137.6145,44.8677 L129.1,47.3 Z" id="path9035" fill="#B58A32" opacity="0.91661"></path>
                    <path d="M91.6,163.3 C86.94,164.2151 84.2719,152.854 83.6244,146.986 C81.9379,131.702 79.5187,114.945 67.7184,103.939 C60.6945,97.1017 52.1234,91.96 43.0564,88.316 C42.6904,63.501 42.3246,38.686 41.9586,13.872 C53.1886,14.9992 64.5556,13.4389 75.0806,8.4218 C90.2596,1.1864 109.3346,2.5778 124.8426,8.4638 C130.5607,10.634 140.9846,20.5268 129.5275,23.2458 C126.7063,23.9153 135.8684,24.5577 138.8574,25.0785 C146.5114,26.4118 150.3074,38.9895 143.1774,43.5675 C140.8101,45.3289 130.6414,47.2345 138.0195,47.1076 C146.5309,46.9217 154.8285,52.3246 152.1945,62.0356 C150.2137,69.3386 142.21,71.7337 134.5795,71.6027 C129.627,71.5177 140.0672,71.7776 142.9403,74.6582 C148.5211,80.2536 148.0844,90.1602 142.0755,93.9252 C131.5775,100.5023 118.0735,100.2217 105.9115,99.8623 C100.4787,99.7018 99.8519,100.7758 102.2599,105.2588 C106.2321,117.5878 109.5409,131.2608 104.4825,143.8128 C101.701,150.715 96.7071,162.2968 92.6305,163.0978 L91.6,163.3 Z M91.618,160.6207 C98.2383,156.6223 100.1832,147.8667 102.62,140.8187 C107.3133,127.2447 101.896,113.0027 97.699,100.0347 C97.5452,96.7845 101.6492,97.2006 103.8736,97.1988 C116.1526,97.1888 129.7046,98.1001 140.4436,91.7784 C146.5068,88.2091 145.1793,74.8264 135.6993,74.9064 C132.4591,74.9334 126.6217,76.3033 125.6483,71.9191 C125.4334,68.5746 129.706,68.8137 131.9385,68.7246 C139.5149,68.4226 149.2695,68.1802 149.7635,59.2422 C150.2157,51.067 142.5176,50.4859 136.6205,50.1725 C134.0451,50.0355 129.0691,51.349 128.6871,47.5573 C128.3447,44.1583 133.2613,44.3884 136.6614,43.3121 C147.0784,40.0146 144.8357,31.2261 137.2969,28.2241 C133.2075,26.5953 128.292,28.5566 124.8299,26.2175 C122.4037,24.5781 124.5706,22.2747 128.0168,21.2809 C130.6161,20.5314 131.7141,19.2588 131.5228,16.4849 C131.3391,13.8209 125.8565,11.3245 122.1126,10.19 C107.4736,5.754 90.2276,4.2754 76.2286,10.8488 C66.2321,15.543 55.4906,17.8496 44.7106,16.7381 C45.0579,39.9961 45.4053,63.2541 45.7526,86.5121 C62.7436,93.2914 78.3826,106.6061 82.7786,125.0101 C86.1369,135.7781 85.1239,147.4121 88.6951,158.0811 C89.199,159.3088 90.4373,161.3343 91.6171,160.6217 L91.618,160.6207 Z" id="path9037" stroke="#D2AA48" fill="#D2AA48"></path>
                    <polygon id="path9040" fill="#B58A32" opacity="0.91661" points="2.3 88.3 2.2999 83.2115 38.5829 90.7336 38.5829 96.707"></polygon>
                    <polygon id="path9042" fill="#F7E383" points="0.7 93.8 39.97 103.092 39.7488 95.5699 1.1428 86.7203"></polygon>
                    <polygon id="path9044" fill="#B58A32" opacity="0.91661" points="1.1 17.6 1.1 10.1885 40.149 3.662 40.149 11.6266"></polygon>
                    <polygon id="path9046" fill="#F7E383" points="2.1 20.3 39.158 14.5667 39.158 8.8145 1.879 14.5667"></polygon>
                    <path d="M40.1,98.6 L1.213,89.7434 L1.213,13.6054 L40.1,7.4653 L40.1,98.6 L40.1,98.6 Z M37.216,95.0094 L37.216,10.852 L4.097,16.0618 L4.097,87.4738 L37.216,95.0094 L37.216,95.0094 Z" id="path9048" stroke="#D2AA48" fill="#D2AA48"></path>
                </g>
            </g>
        </g>
    </g>
</svg>