<?xml version="1.0" encoding="UTF-8"?>
<svg width="58px" height="59px" viewBox="0 0 58 59" version="1.1" xmlns="http://www.w3.org/2000/svg" xmlns:xlink="http://www.w3.org/1999/xlink">
    <title>5981969921578289010</title>
    <g id="Page-1" stroke="none" stroke-width="1" fill="none" fill-rule="evenodd">
        <g id="5981969921578289010" fill-rule="nonzero">
            <path d="M52.003,29.211 L52.003,30.449 C52.003,37.381 40.362,43 26.003,43 C18.077,43 10.984,41.286 6.215,38.586 C7.823,44.831 18.751,50 32.003,50 C46.362,50 58.003,43.932 58.003,37 C58.003,33.952 55.747,31.266 52.003,29.211" id="XMLID_143_" fill="#FCC62D"></path>
            <path d="M32.003,50 C17.644,50 6.003,43.932 6.003,37 L6.003,45.448 C6.003,52.38 17.644,58 32.003,58 C46.362,58 58.003,52.38 58.003,45.448 L58.003,37 C58.003,43.932 46.362,50 32.003,50" id="XMLID_142_" fill="#E4AF18"></path>
            <path d="M9.003,51.349 C9.593,51.888 10.262,52.404 11.003,52.894 L11.003,44.603 C10.262,44.093 9.593,43.558 9.003,43 L9.003,51.349 Z" id="XMLID_141_" fill="#CE9912"></path>
            <path d="M53.003,44.603 L53.003,52.894 C53.744,52.405 54.413,51.888 55.003,51.349 L55.003,43 C54.414,43.558 53.745,44.093 53.003,44.603" id="XMLID_140_" fill="#CE9912"></path>
            <path d="M13.003,54.06 C13.635,54.387 14.303,54.696 15.003,54.989 L15.003,46.796 C14.303,46.488 13.635,46.163 13.003,45.821 L13.003,54.06 Z" id="XMLID_139_" fill="#CE9912"></path>
            <path d="M49.003,54.988 C49.703,54.696 50.371,54.386 51.003,54.059 L51.003,45.82 C50.371,46.162 49.703,46.488 49.003,46.795 L49.003,54.988 Z" id="XMLID_138_" fill="#CE9912"></path>
            <path d="M17.003,55.745 C17.649,55.966 18.316,56.172 19.003,56.364 L19.003,48.25 C18.316,48.046 17.649,47.827 17.003,47.594 L17.003,55.745 Z" id="XMLID_137_" fill="#CE9912"></path>
            <path d="M45.003,56.364 C45.69,56.172 46.357,55.966 47.003,55.745 L47.003,47.594 C46.357,47.827 45.69,48.046 45.003,48.25 L45.003,56.364 Z" id="XMLID_136_" fill="#CE9912"></path>
            <path d="M22.003,57.084 C22.656,57.216 23.324,57.334 24.003,57.439 L24.003,49.395 C23.324,49.282 22.656,49.156 22.003,49.016 L22.003,57.084 Z" id="XMLID_135_" fill="#CE9912"></path>
            <path d="M40.003,57.439 C40.682,57.333 41.35,57.215 42.003,57.084 L42.003,49.015 C41.35,49.155 40.682,49.281 40.003,49.395 L40.003,57.439 Z" id="XMLID_134_" fill="#CE9912"></path>
            <path d="M28.003,57.899 C28.661,57.948 29.329,57.982 30.003,58.006 L30.003,50.003 C29.329,49.977 28.661,49.941 28.003,49.888 L28.003,57.899 Z" id="XMLID_133_" fill="#CE9912"></path>
            <path d="M34.003,58.007 C34.677,57.982 35.345,57.949 36.003,57.9 L36.003,49.888 C35.345,49.941 34.677,49.977 34.003,50.004 L34.003,58.007 Z" id="XMLID_132_" fill="#CE9912"></path>
            <path d="M26.003,34.993 C11.644,34.993 0.003,28.925 0.003,21.993 L0.003,30.441 C0.003,37.373 11.644,42.993 26.003,42.993 C40.362,42.993 52.003,37.373 52.003,30.441 L52.003,21.993 C52.003,28.925 40.362,34.993 26.003,34.993" id="XMLID_131_" fill="#E4AF18"></path>
            <path d="M3.003,36.342 C3.593,36.881 4.262,37.397 5.003,37.887 L5.003,29.596 C4.262,29.086 3.593,28.551 3.003,27.994 L3.003,36.342 Z" id="XMLID_130_" fill="#CE9912"></path>
            <path d="M47.003,29.596 L47.003,37.887 C47.744,37.398 48.413,36.881 49.003,36.342 L49.003,27.993 C48.414,28.551 47.745,29.086 47.003,29.596" id="XMLID_129_" fill="#CE9912"></path>
            <path d="M7.003,39.053 C7.635,39.38 8.303,39.689 9.003,39.982 L9.003,31.789 C8.303,31.481 7.635,31.156 7.003,30.814 L7.003,39.053 Z" id="XMLID_128_" fill="#CE9912"></path>
            <path d="M43.003,39.981 C43.703,39.689 44.371,39.38 45.003,39.052 L45.003,30.813 C44.371,31.155 43.703,31.481 43.003,31.788 L43.003,39.981 Z" id="XMLID_127_" fill="#CE9912"></path>
            <path d="M11.003,40.738 C11.649,40.959 12.316,41.165 13.003,41.357 L13.003,33.243 C12.316,33.039 11.649,32.82 11.003,32.587 L11.003,40.738 Z" id="XMLID_126_" fill="#CE9912"></path>
            <path d="M39.003,41.357 C39.69,41.165 40.357,40.959 41.003,40.738 L41.003,32.587 C40.357,32.82 39.69,33.039 39.003,33.243 L39.003,41.357 Z" id="XMLID_125_" fill="#CE9912"></path>
            <path d="M16.003,42.077 C16.656,42.209 17.324,42.327 18.003,42.432 L18.003,34.388 C17.324,34.275 16.656,34.149 16.003,34.009 L16.003,42.077 Z" id="XMLID_124_" fill="#CE9912"></path>
            <path d="M34.003,42.433 C34.682,42.327 35.35,42.209 36.003,42.078 L36.003,34.009 C35.35,34.149 34.682,34.275 34.003,34.389 L34.003,42.433 Z" id="XMLID_123_" fill="#CE9912"></path>
            <path d="M22.003,42.893 C22.661,42.942 23.329,42.976 24.003,43 L24.003,34.997 C23.329,34.971 22.661,34.935 22.003,34.882 L22.003,42.893 Z" id="XMLID_122_" fill="#CE9912"></path>
            <path d="M28.003,43 C28.677,42.975 29.345,42.942 30.003,42.893 L30.003,34.881 C29.345,34.934 28.677,34.97 28.003,34.997 L28.003,43 Z" id="XMLID_121_" fill="#CE9912"></path>
            <path d="M51.32,33.302 C48.643,38.858 38.329,43 26.003,43 C21.399,43 17.077,42.42 13.326,41.407 C16.954,43.87 23.411,45.966 32.003,45.966 C45.685,45.966 54.003,40.655 54.003,37 C54.003,35.78 53.064,34.486 51.32,33.302" id="XMLID_120_" fill="#FFD949"></path>
            <path d="M31.003,33 C16.644,33 5.003,27.38 5.003,20.448 L5.003,14.796 C1.862,16.765 0.003,19.234 0.003,22 C0.003,28.932 11.644,35 26.003,35 C32.917,35 39.195,33.591 43.852,31.358 C40.061,32.401 35.678,33 31.003,33" id="XMLID_119_" fill="#FFD949"></path>
            <path d="M31.003,24.993 C16.644,24.993 5.003,18.925 5.003,11.993 L5.003,20.441 C5.003,27.373 16.644,32.993 31.003,32.993 C45.362,32.993 57.003,27.373 57.003,20.441 L57.003,11.993 C57.003,18.925 45.362,24.993 31.003,24.993" id="XMLID_118_" fill="#E4AF18"></path>
            <path d="M8.003,26.342 C8.593,26.881 9.262,27.397 10.003,27.887 L10.003,19.596 C9.262,19.086 8.593,18.551 8.003,17.994 L8.003,26.342 Z" id="XMLID_117_" fill="#CE9912"></path>
            <path d="M52.003,19.596 L52.003,27.887 C52.744,27.398 53.413,26.881 54.003,26.342 L54.003,17.993 C53.414,18.551 52.745,19.086 52.003,19.596" id="XMLID_116_" fill="#CE9912"></path>
            <path d="M12.003,29.053 C12.635,29.38 13.303,29.689 14.003,29.982 L14.003,21.789 C13.303,21.481 12.635,21.156 12.003,20.814 L12.003,29.053 Z" id="XMLID_115_" fill="#CE9912"></path>
            <path d="M48.003,29.981 C48.703,29.689 49.371,29.38 50.003,29.052 L50.003,20.813 C49.371,21.155 48.703,21.481 48.003,21.788 L48.003,29.981 Z" id="XMLID_114_" fill="#CE9912"></path>
            <path d="M16.003,30.738 C16.649,30.959 17.316,31.165 18.003,31.357 L18.003,23.243 C17.316,23.039 16.649,22.82 16.003,22.587 L16.003,30.738 Z" id="XMLID_113_" fill="#CE9912"></path>
            <path d="M44.003,31.357 C44.69,31.165 45.357,30.959 46.003,30.738 L46.003,22.587 C45.357,22.82 44.69,23.039 44.003,23.243 L44.003,31.357 Z" id="XMLID_112_" fill="#CE9912"></path>
            <path d="M21.003,32.077 C21.656,32.209 22.324,32.327 23.003,32.432 L23.003,24.388 C22.324,24.275 21.656,24.149 21.003,24.009 L21.003,32.077 Z" id="XMLID_111_" fill="#CE9912"></path>
            <path d="M39.003,32.433 C39.682,32.327 40.35,32.209 41.003,32.078 L41.003,24.009 C40.35,24.149 39.682,24.275 39.003,24.389 L39.003,32.433 Z" id="XMLID_110_" fill="#CE9912"></path>
            <path d="M27.003,32.893 C27.661,32.942 28.329,32.976 29.003,33 L29.003,24.997 C28.329,24.971 27.661,24.935 27.003,24.882 L27.003,32.893 Z" id="XMLID_109_" fill="#CE9912"></path>
            <path d="M33.003,33 C33.677,32.975 34.345,32.942 35.003,32.893 L35.003,24.881 C34.345,24.934 33.677,24.97 33.003,24.997 L33.003,33 Z" id="XMLID_108_" fill="#CE9912"></path>
            <path d="M57.003,12 C57.003,18.932 45.362,25 31.003,25 C16.644,25 5.003,18.932 5.003,12 C5.003,5.068 16.644,0 31.003,0 C45.362,0 57.003,5.068 57.003,12" id="XMLID_107_" fill="#FCC62D"></path>
            <path d="M31.003,20.966 C17.321,20.966 9.003,15.656 9.003,12 C9.003,8.345 17.321,3 31.003,3 C44.685,3 53.003,8.345 53.003,12 C53.003,15.656 44.685,20.966 31.003,20.966" id="XMLID_106_" fill="#FFD949"></path>
            <path d="M37.784,13.359 C38.604,13.185 39.085,12.679 38.908,12.102 L38.718,11.486 C38.579,11.033 38.038,10.655 37.375,10.467 C36.473,8.54 34.173,7.842 30.757,7.842 C30.595,7.842 30.437,7.846 30.281,7.852 C29.115,7.9 27.952,7.788 27.045,7.456 C26.675,7.321 26.374,7.18 26.175,7.033 C26.085,6.967 25.867,7.009 25.867,7.093 C25.867,7.239 25.878,7.412 25.91,7.604 C26.034,8.351 25.886,8.239 25.148,8.984 C24.72,9.418 24.379,9.918 24.132,10.47 C23.473,10.659 22.935,11.036 22.796,11.487 L22.606,12.103 C22.429,12.68 22.91,13.186 23.73,13.36 C23.964,14.836 24.967,16.132 27.154,16.846 L27.034,17.883 C27.002,18.16 26.763,18.416 26.415,18.542 L22.004,20.134 C24.58,20.674 27.516,21 30.757,21 C33.953,21 36.852,20.683 39.402,20.158 L35.087,18.545 C34.746,18.417 34.512,18.163 34.481,17.891 L34.36,16.846 C36.547,16.132 37.55,14.835 37.784,13.359" id="XMLID_105_" fill="#F0C41B"></path>
        </g>
    </g>
</svg>