<?xml version="1.0" encoding="UTF-8"?>
<svg width="513px" height="513px" viewBox="0 0 513 513" version="1.1" xmlns="http://www.w3.org/2000/svg" xmlns:xlink="http://www.w3.org/1999/xlink">
    <title>16648238301547544850</title>
    <g id="Page-1" stroke="none" stroke-width="1" fill="none" fill-rule="evenodd">
        <g id="16648238301547544850" fill-rule="nonzero">
            <g id="Group" transform="translate(7.000000, 7.000000)">
                <circle id="Oval" fill="#E6646E" cx="249.001" cy="249.001" r="248.5"></circle>
                <path d="M285.074,461.429 C147.831,461.429 36.574,350.171 36.574,212.929 C36.574,153.496 57.465,98.958 92.269,56.196 C36.285,101.761 0.501,171.191 0.501,249.001 C0.501,386.243 111.758,497.501 249.001,497.501 C326.811,497.501 396.243,461.717 441.807,405.732 C399.046,440.537 344.507,461.429 285.074,461.429 Z" id="Path" fill="#DC4655"></path>
                <path d="M313.158,393.361 C309.811,393.361 306.414,392.938 303.024,392.054 C268.791,383.138 229.211,383.138 194.978,392.054 C173.56,397.647 151.668,384.793 146.087,363.375 C140.505,341.957 153.344,320.065 174.766,314.484 C222.182,302.123 275.821,302.123 323.237,314.484 C344.659,320.066 357.497,341.957 351.916,363.375 C347.218,381.407 330.959,393.361 313.158,393.361 Z" id="Path" fill="#FFFFFF"></path>
                <path d="M164.832,265.033 L164.832,265.033 C153.764,265.033 144.792,256.061 144.792,244.993 L144.792,228.961 C144.792,217.893 153.764,208.921 164.832,208.921 L164.832,208.921 C175.9,208.921 184.872,217.893 184.872,228.961 L184.872,244.993 C184.872,256.061 175.9,265.033 164.832,265.033 Z" id="Path" fill="#5A4650"></path>
                <path d="M184.872,228.961 C184.872,216.582 173.65,206.826 160.824,209.31 L160.824,224.953 C160.824,238.235 171.591,249.001 184.872,249.001 L184.872,249.001 L184.872,228.961 Z" id="Path" fill="#6E5A64"></path>
                <path d="M333.171,265.033 L333.171,265.033 C322.103,265.033 313.131,256.061 313.131,244.993 L313.131,228.961 C313.131,217.893 322.103,208.921 333.171,208.921 L333.171,208.921 C344.239,208.921 353.211,217.893 353.211,228.961 L353.211,244.993 C353.211,256.061 344.238,265.033 333.171,265.033 Z" id="Path" fill="#5A4650"></path>
                <path d="M353.211,228.961 C353.211,216.582 341.989,206.826 329.163,209.31 L329.163,224.953 C329.163,238.235 339.93,249.001 353.211,249.001 L353.211,249.001 L353.211,228.961 Z" id="Path" fill="#6E5A64"></path>
            </g>
            <g id="Group" fill="#000000">
                <path d="M171.822,223.445 C175.964,223.445 179.322,220.087 179.322,215.945 C179.322,211.803 175.964,208.445 171.822,208.445 C156.635,208.445 144.28,220.801 144.28,235.988 L144.28,252.022 C144.28,267.209 156.635,279.564 171.822,279.564 C187.009,279.564 199.364,267.209 199.364,252.022 L199.364,239.996 C199.364,235.854 196.006,232.496 191.864,232.496 C187.722,232.496 184.364,235.854 184.364,239.996 L184.364,252.022 C184.364,258.938 178.738,264.564 171.822,264.564 C164.906,264.564 159.28,258.938 159.28,252.022 L159.28,235.988 C159.279,229.071 164.906,223.445 171.822,223.445 Z" id="Path"></path>
                <path d="M367.723,239.996 C367.723,235.854 364.365,232.496 360.223,232.496 C356.081,232.496 352.723,235.854 352.723,239.996 L352.723,252.022 C352.723,258.938 347.097,264.564 340.181,264.564 C333.265,264.564 327.638,258.938 327.638,252.022 L327.638,235.988 C327.638,229.072 333.265,223.445 340.181,223.445 C344.323,223.445 347.681,220.087 347.681,215.945 C347.681,211.803 344.323,208.445 340.181,208.445 C324.994,208.445 312.638,220.801 312.638,235.988 L312.638,252.022 C312.638,267.209 324.994,279.564 340.181,279.564 C355.368,279.564 367.723,267.209 367.723,252.022 L367.723,239.996 L367.723,239.996 Z" id="Path"></path>
                <path d="M15.109,248.714 C16.942,187.11 41.966,129.171 85.568,85.568 C129.171,41.965 187.111,16.942 248.714,15.109 C310.047,13.282 369.116,34.539 415.042,74.96 C418.151,77.697 422.891,77.395 425.627,74.285 C428.364,71.176 428.062,66.437 424.952,63.7 C376.162,20.758 313.416,-1.823 248.268,0.115 C182.828,2.063 121.279,28.644 74.962,74.961 C28.644,121.279 2.063,182.827 0.115,248.268 C-1.824,313.415 20.757,376.162 63.7,424.952 C65.182,426.637 67.252,427.497 69.333,427.497 C71.093,427.497 72.86,426.881 74.285,425.627 C77.394,422.89 77.697,418.151 74.96,415.042 C34.538,369.116 13.283,310.047 15.109,248.714 Z" id="Path"></path>
                <path d="M448.302,87.051 C445.566,83.942 440.826,83.639 437.717,86.376 C434.608,89.113 434.305,93.852 437.042,96.961 C477.463,142.886 498.719,201.956 496.894,263.288 C495.061,324.891 470.038,382.831 426.435,426.434 C382.832,470.037 324.893,495.06 263.289,496.893 C201.951,498.725 142.887,477.463 96.961,437.042 C93.853,434.306 89.113,434.607 86.376,437.717 C83.639,440.826 83.941,445.565 87.051,448.302 C133.905,489.541 193.631,512.002 255.993,512.002 C258.569,512.002 261.151,511.963 263.735,511.886 C329.176,509.938 390.724,483.357 437.041,437.04 C483.359,390.723 509.94,329.175 511.888,263.734 C513.826,198.588 491.245,135.84 448.302,87.051 Z" id="Path"></path>
                <path d="M207.866,207.47 C210.738,207.47 213.478,205.811 214.722,203.019 C216.407,199.235 214.705,194.802 210.921,193.117 L138.767,160.991 C134.981,159.305 130.549,161.009 128.865,164.792 C127.18,168.576 128.882,173.009 132.666,174.694 L204.82,206.82 C205.811,207.261 206.847,207.47 207.866,207.47 Z" id="Path"></path>
                <path d="M383.08,164.792 C381.395,161.009 376.963,159.305 373.178,160.991 L301.025,193.117 C297.241,194.802 295.54,199.235 297.224,203.019 C298.468,205.812 301.208,207.47 304.08,207.47 C305.099,207.47 306.135,207.261 307.126,206.82 L379.279,174.694 C383.063,173.009 384.764,168.576 383.08,164.792 Z" id="Path"></path>
                <path d="M167.76,401.357 C175.158,405.698 183.395,407.918 191.748,407.918 C195.776,407.918 199.833,407.401 203.833,406.356 C236.968,397.726 274.976,397.726 308.107,406.355 C312.049,407.384 316.096,407.906 320.136,407.906 C341.772,407.906 360.696,393.267 366.156,372.308 C369.361,360.009 367.584,347.198 361.154,336.234 C354.723,325.27 344.407,317.467 332.109,314.262 C283.723,301.648 228.223,301.648 179.838,314.262 C167.538,317.467 157.222,325.27 150.791,336.234 C144.36,347.198 142.584,360.009 145.789,372.308 C148.994,384.608 156.797,394.924 167.76,401.357 Z M320.136,392.906 C317.374,392.906 314.601,392.548 311.891,391.841 C276.354,382.585 235.59,382.585 200.048,391.842 C191.63,394.041 182.859,392.825 175.351,388.419 C169.228,384.826 164.547,379.465 161.836,373.04 C191.933,364.805 223.562,360.626 255.972,360.626 C288.379,360.626 320.005,364.804 350.099,373.037 C345.06,384.936 333.338,392.906 320.136,392.906 Z M183.621,328.777 C206.611,322.784 231.291,319.787 255.973,319.787 C280.654,319.787 305.335,322.784 328.326,328.777 C336.749,330.972 343.812,336.315 348.216,343.823 C350.83,348.279 352.311,353.181 352.632,358.19 C321.675,349.859 289.208,345.627 255.973,345.627 C222.738,345.627 190.271,349.86 159.314,358.19 C159.635,353.181 161.117,348.279 163.73,343.823 C168.133,336.315 175.197,330.972 183.621,328.777 Z" id="Shape"></path>
                <path d="M389.548,82.369 C386.619,79.44 381.87,79.44 378.942,82.369 L364.202,97.109 L349.462,82.369 C346.533,79.44 341.784,79.44 338.856,82.369 C335.927,85.298 335.927,90.047 338.856,92.975 L353.595,107.715 L338.856,122.454 C335.927,125.383 335.927,130.131 338.856,133.06 C340.32,134.525 342.24,135.257 344.159,135.257 C346.078,135.257 347.998,134.525 349.462,133.06 L364.202,118.321 L378.942,133.06 C380.406,134.525 382.326,135.257 384.245,135.257 C386.164,135.257 388.084,134.525 389.548,133.06 C392.477,130.131 392.477,125.383 389.548,122.454 L374.809,107.715 L389.548,92.975 C392.478,90.046 392.478,85.298 389.548,82.369 Z" id="Path"></path>
            </g>
        </g>
    </g>
</svg>