<?xml version="1.0" encoding="UTF-8"?>
<svg width="222px" height="390px" viewBox="0 0 222 390" version="1.1" xmlns="http://www.w3.org/2000/svg" xmlns:xlink="http://www.w3.org/1999/xlink">
    <title>12599486201582000674</title>
    <g id="Page-1" stroke="none" stroke-width="1" fill="none" fill-rule="evenodd">
        <g id="12599486201582000674" fill-rule="nonzero">
            <path d="M146.3,389.6 C125.4,389.6 104.5,389.3 83.6,389.7 C75,389.9 71.3,387 71.7,378.1 C72.2,363.9 72.1,349.7 71.8,335.6 C71.6,327.9 74.7,324.3 82.4,324.8 C84.5,324.9 86.7,324.8 88.8,324.8 C105.8,324.9 106.4,323.9 100.8,307.9 C97.1,297.3 90.2,288.7 82.6,280.7 C74.3,271.8 66.7,262.4 63.5,250.5 C62,244.7 58.8,246.1 54.8,246.5 C37.9,248.3 30,242.5 26.9,225.5 C26.2,221.6 24.4,221.3 21.4,220.9 C14.4,219.9 8.9,215.9 4.6,210.6 C-0.1,204.8 -0.8,198.5 3.9,192.1 C8.4,186.1 12.2,179.6 17.4,174.3 C30,161.6 33.5,146.9 33,129.2 C31.8,90.6 32.9,51.9 32.5,13.3 C32.4,3.6 35.5,0.2 45.3,0.297865237 C84.6,0.7 124,0.7 163.3,0.297865237 C173.1,0.2 176.2,3.7 176,13.4 C175.5,43.9 176,74.4 175.7,104.9 C175.6,110.9 177.4,114.5 182.6,117.6 C193.5,124.2 203.8,131.7 212.6,141.2 C219.8,149.1 223.1,157.8 220.4,168.5 C208.4,216.7 206.4,265.9 207.6,315.3 C207.7,320.9 207.1,325.9 215.4,325.4 C219.7,325.1 221.1,329.2 221.1,333 C221.2,349.3 221.1,365.6 221.1,381.9 C221.1,388.7 216.9,389.9 211.2,389.9 C189.6,389.6 168,389.6 146.3,389.6 Z" id="Path" fill="#000000"></path>
            <path d="M175.8,130.6 C181.2,131 183.8,134.3 186.9,136.4 C208.5,151.1 210.1,154.6 204.4,180.2 C194.6,224.2 193.5,268.7 194.9,313.4 C195.2,323.1 192.4,325.3 183.1,325 C163.6,324.3 144.1,324.6 124.6,324.9 C119.4,325 117.1,323.7 116.5,318 C114.8,300.7 106.6,286.2 94.4,274.3 C76.8,257.1 70.1,236.7 73.9,212.5 C76.6,195.1 75.5,177.9 71.8,160.7 C71.1,157.6 70.7,154.4 70.5,151.2 C70.1,143.9 67.8,135.4 76.7,131.6 C86.2,127.5 93.9,131.8 100,139.4 C107.5,148.5 110.7,159.2 111,170.9 C111.2,182.4 113.4,193.5 118.9,203.6 C125.1,215 134,221.4 147.9,221.1 C175.8,220.6 175.8,221 175.8,192.8 C175.8,172.4 175.8,151.9 175.8,130.6 Z" id="Path" fill="#FCC69D"></path>
            <path d="M162.8,110.5 C162.8,138.1 163,165.8 162.6,193.4 C162.5,198.2 165.9,204.5 159.8,207.7 C153.2,211.1 137.5,207.2 133.4,201.7 C126.4,192.2 124.4,181.1 124.1,169.6 C123.8,156.1 119.7,143.9 111.7,133 C106.9,126.6 101,121.7 93.5,118.8 C74.8,111.6 57.9,122.9 56.9,142.9 C56.3,155.1 60.2,166.7 61.3,178.7 C62,185.8 62,192.8 62.1,199.9 C62.2,207.7 58.2,208 52.2,208.2 C44.5,208.4 45.8,203.5 45.8,199.1 C45.8,139.9 45.9,80.8 45.6,21.6 C45.6,14.8 47.8,13.3 54.1,13.4 C87.4,13.7 120.7,13.8 154,13.4 C161.2,13.3 163,15.4 162.9,22.3 C162.6,51.7 162.8,81.1 162.8,110.5 Z" id="Path" fill="#93CE92"></path>
            <path d="M147.1,376.5 C129.4,376.5 111.7,376.2 94,376.6 C87.2,376.8 84.1,375.1 84.9,367.8 C85.9,358.1 80.8,345.3 87.1,339.3 C92,334.6 104.6,337.8 113.7,337.8 C142,337.7 170.3,338 198.6,337.6 C205.6,337.5 209.1,338.8 208.2,346.7 C207.1,356.1 212,368.4 206.4,374.4 C200.7,380.5 188.4,376 178.9,376.3 C168.3,376.8 157.7,376.5 147.1,376.5 Z" id="Path" fill="#9D9AE8"></path>
            <path d="M32.8,179.5 C32.8,186.4 32.6,193.4 32.9,200.3 C33.1,204.6 31.4,207 27.3,207.8 C22.6,208.7 19,206.6 16,203.5 C12.6,200 16.3,197.8 17.9,195.5 C22,189.8 26.3,184.4 30.6,178.8 C31.3,179 32,179.3 32.8,179.5 Z" id="Path" fill="#FCC69D"></path>
            <path d="M50.6,220.8 C54,221.9 59.9,218.2 60,225.6 C60.2,232.2 55.6,233.8 50.2,233.8 C44.7,233.9 39.8,232.1 40,225.8 C40.2,218.4 46.7,221.9 50.6,220.8 Z" id="Path" fill="#FCC69D"></path>
        </g>
    </g>
</svg>