<?xml version="1.0" encoding="UTF-8"?>
<svg width="476px" height="448px" viewBox="0 0 476 448" version="1.1" xmlns="http://www.w3.org/2000/svg" xmlns:xlink="http://www.w3.org/1999/xlink">
    <title>hit-hand</title>
    <g id="Page-1" stroke="none" stroke-width="1" fill="none" fill-rule="evenodd">
        <g id="hit-hand" fill="#00BB2D" fill-rule="nonzero">
            <path d="M432.11875,47.9941685 C407.110156,47.5942627 386.75,69.1891789 386.75,95.9828711 L379.3125,95.9828711 L379.3125,64.7902145 C379.3125,38.4964045 359.882031,16.5015825 335.43125,16.0017001 C310.422656,15.6017943 290.0625,37.1967105 290.0625,63.9904027 L290.0625,95.9828711 L282.625,95.9828711 L282.625,48.7939803 C282.625,22.5001703 263.194531,0.505348266 238.74375,0.00546594694 C213.735156,-0.394439908 193.375,21.2004763 193.375,47.9941685 L193.375,95.9828711 L185.9375,95.9828711 L185.9375,64.7902145 C185.9375,38.4964045 166.507031,16.5015825 142.05625,16.0017001 C117.047656,15.6017943 96.6875,37.1967105 96.6875,63.9904027 L96.6875,199.958393 L89.25,192.860065 L89.25,144.771385 C89.25,118.477575 69.8195312,96.4827535 45.36875,95.9828711 C20.3601562,95.5829653 0,117.177881 0,143.971574 L0,210.355946 C0,237.749497 10.8773437,263.843354 29.9359375,282.139047 L133.782031,381.415675 C143.264844,390.513533 148.75,403.61045 148.75,417.307226 L148.75,424.005649 C148.75,437.302518 158.697656,448 171.0625,448 L394.1875,448 C406.552344,448 416.5,437.302518 416.5,424.005649 L416.5,421.106331 C416.5,408.309344 418.917188,395.612333 423.472656,383.81511 L469.027344,267.542483 C473.675781,255.74526 476,243.048249 476,230.251262 L476,96.7826829 C476,70.4888729 456.569531,48.3940744 432.11875,47.9941685 Z" id="Path"></path>
        </g>
    </g>
</svg>