<?xml version="1.0" encoding="UTF-8"?>
<svg width="487px" height="450px" viewBox="0 0 487 450" version="1.1" xmlns="http://www.w3.org/2000/svg" xmlns:xlink="http://www.w3.org/1999/xlink">
    <title>6242066421548235377</title>
    <g id="Page-1" stroke="none" stroke-width="1" fill="none" fill-rule="evenodd">
        <g id="6242066421548235377" fill="#FF0000" fill-rule="nonzero">
            <path d="M23.875,436.557 C23.875,443.857 29.775,449.757 37.075,449.757 L93.175,449.757 C100.475,449.757 106.375,443.857 106.375,436.557 L106.375,201.757 L23.875,119.257 C23.875,119.257 23.875,436.557 23.875,436.557 Z" id="Path"></path>
            <path d="M138.475,233.857 L138.475,436.557 C138.475,443.857 144.375,449.757 151.675,449.757 L207.775,449.757 C215.075,449.757 220.975,443.857 220.975,436.557 L220.975,297.557 C206.975,295.757 194.075,289.557 183.975,279.457 L138.475,233.857 Z" id="Path"></path>
            <path d="M367.775,350.857 L367.775,436.557 C367.775,443.857 373.675,449.757 380.975,449.757 L437.075,449.757 C444.375,449.757 450.275,443.857 450.275,436.557 L450.275,355.057 C425.275,353.857 400.275,352.757 375.275,351.557 C373.575,351.457 370.875,351.257 367.775,350.857 Z" id="Path"></path>
            <path d="M334.375,262.257 L312.875,240.757 L274.175,279.457 C268.075,285.557 260.875,290.257 253.075,293.457 L253.075,436.557 C253.075,443.857 258.975,449.757 266.275,449.757 L322.375,449.757 C329.675,449.757 335.575,443.857 335.575,436.557 L335.575,334.757 C331.475,330.457 328.075,325.557 325.475,319.957 C321.175,310.357 313.575,286.157 334.375,262.257 Z" id="Path"></path>
            <path d="M486.075,298.657 L484.675,269.557 C483.775,250.157 482.875,230.857 481.975,211.457 C481.775,206.957 480.975,201.157 476.375,196.657 C475.175,195.457 473.675,194.257 471.975,193.357 C469.475,191.957 466.975,191.357 464.575,191.357 C458.775,191.357 454.975,195.157 452.275,197.857 L445.975,204.157 C440.875,209.257 435.875,214.257 430.775,219.357 C430.275,219.857 429.775,220.257 429.275,220.757 L331.175,122.657 C326.275,117.757 319.775,115.057 312.975,115.057 C306.175,115.057 299.575,117.757 294.775,122.657 L229.275,188.157 L48.975,7.957 C44.075,3.057 37.675,0.357 30.775,0.357 C23.875,0.357 17.375,3.057 12.475,7.957 L7.575,12.857 C-2.525,22.957 -2.525,39.257 7.575,49.357 L210.875,252.657 C215.775,257.557 222.175,260.257 229.075,260.257 C235.975,260.257 242.475,257.557 247.375,252.657 L312.875,187.157 L387.875,262.157 C382.575,267.357 377.375,272.557 372.175,277.857 L364.675,285.357 C361.675,288.357 355.475,294.557 359.975,304.057 C360.875,305.957 361.975,307.557 363.275,308.857 C367.575,313.157 373.075,313.457 376.975,313.557 C406.775,314.957 436.675,316.357 466.475,317.757 C466.975,317.757 467.575,317.757 468.175,317.757 C474.075,317.757 478.675,316.157 481.775,312.857 C484.975,309.557 486.375,304.857 486.075,298.657 Z" id="Path"></path>
        </g>
    </g>
</svg>