<?xml version="1.0" encoding="UTF-8"?>
<svg width="30px" height="40px" viewBox="0 0 30 40" version="1.1" xmlns="http://www.w3.org/2000/svg" xmlns:xlink="http://www.w3.org/1999/xlink">
    <title>9572258171558096447</title>
    <g id="Page-1" stroke="none" stroke-width="1" fill="none" fill-rule="evenodd">
        <g id="9572258171558096447" fill-rule="nonzero">
            <path d="M24.5,23 C22.3,20 19.3,18 15,18 C10.7,18 7.7,20 5.5,23 L24.5,23 Z" id="Path" fill="#2196F3"></path>
            <path d="M25.1,39 L4.9,39 C3.8,39 3,38.2 2.9,37.1 L2.1,24.1 C2.1,23 3,22 4.1,22 L25.9,22 C27.1,22 28,23 27.9,24.1 L27.1,37.1 C27,38.2 26.2,39 25.1,39 Z" id="Path" fill="#546E7A"></path>
            <circle id="Oval" fill="#B0BEC5" cx="25" cy="25" r="1"></circle>
            <g id="Group" fill="#FFB74D">
                <circle id="Oval" cx="15" cy="8" r="8"></circle>
                <path d="M7.1,38.4 L6,39.5 C5.4,40.1 4.4,40.1 3.8,39.5 L0.5,36.2 C-0.1,35.6 -0.1,34.6 0.5,34 L1.6,32.9 C2.9,31.6 4.7,31.6 6,32.9 L7.1,34 C8.3,35.3 8.3,37.2 7.1,38.4 Z" id="Path"></path>
                <path d="M22.9,34 L24,32.9 C25.3,31.6 27.1,31.6 28.4,32.9 L29.5,34 C30.1,34.6 30.1,35.6 29.5,36.2 L26.2,39.5 C25.6,40.1 24.6,40.1 24,39.5 L22.9,38.4 C21.7,37.2 21.7,35.3 22.9,34 Z" id="Path"></path>
            </g>
        </g>
    </g>
</svg>