<?xml version="1.0" encoding="UTF-8"?>
<svg width="135px" height="135px" viewBox="0 0 135 135" version="1.1" xmlns="http://www.w3.org/2000/svg" xmlns:xlink="http://www.w3.org/1999/xlink">
    <!-- Generator: Sketch 52.6 (67491) - http://www.bohemiancoding.com/sketch -->
    <title>g3012</title>
    <desc>Created with Sketch.</desc>
    <defs>
        <radialGradient cx="38.0566226%" cy="26.1051292%" fx="38.0566226%" fy="26.1051292%" r="78.3515586%" gradientTransform="translate(0.380566,0.261051),scale(1.000000,0.999307),translate(-0.380566,-0.261051)" id="radialGradient-1">
            <stop stop-color="#D1F593" offset="0%"></stop>
            <stop stop-color="#81CE09" offset="100%"></stop>
        </radialGradient>
    </defs>
    <g id="Page-1" stroke="none" stroke-width="1" fill="none" fill-rule="evenodd">
        <g id="cyberscooty-plus-minus">
            <g id="g3012">
                <path d="M76.249,0.018806 C72.4541,-0.093164 68.6246,0.331306 65.999,0.331306 C62.7743,0.331306 58.2828,-0.161264 54.187,0.550056 C52.1388,0.905716 50.1483,1.595656 48.4995,2.893756 C46.8507,4.191956 45.6153,6.104456 45.0933,8.643756 C43.836,14.758256 44.87455,21.616756 44.87455,27.237756 L44.87455,44.893756 C36.84145,44.888056 28.81355,44.892847 20.78055,44.893756 C17.02715,44.893756 12.20155,44.475886 8.03055,45.612506 C5.94505,46.180816 3.95515,47.194506 2.53055,48.925006 C1.10595,50.655506 0.31185,53.046306 0.31185,56.081206 C0.31185,63.540106 -0.40994,71.547206 0.3431,79.269206 L0.31295,79.269206 C0.31295,79.327886 0.343431,79.367246 0.3442,79.425456 C0.385493,82.551356 1.515,85.026956 3.3442,86.644256 C5.2075,88.291656 7.6158,89.099256 10.1567,89.519256 C15.2385,90.359326 21.0387,89.675506 24.5627,89.675506 C26.0676,89.675506 31.3598,89.403486 36.4377,89.394256 C38.9766,89.389656 41.4487,89.438106 43.1877,89.613006 C43.95808,89.690486 44.4972,89.826826 44.8752,89.925506 L44.8752,117.206506 C44.8752,121.612606 45.14225,125.712806 47.0314,128.956506 C48.92055,132.200206 52.5715,134.237706 58.1254,134.237706 L72.2504,134.237706 C75.8403,134.239706 81.0415,135.155186 85.0314,132.487706 C88.9049,129.897006 89.8684,124.975106 90.0626,120.175706 C90.25688,115.375806 89.65635,110.396006 89.65635,107.331706 L89.65635,92.770706 C89.65635,91.184606 89.4825,90.064406 89.5001,89.770706 C89.55557,89.755156 89.73544,89.676956 90.3126,89.676956 L119.1876,89.676956 C122.3106,89.676956 126.2267,90.224486 129.6256,87.926956 C132.1081,86.249156 133.3136,83.887656 133.8131,81.520756 C134.31259,79.153756 134.21935,76.736456 134.21935,74.520756 C134.21935,71.265956 134.92029,65.673956 134.78185,60.301756 C134.64341,54.929756 133.73275,49.453756 129.62565,46.676756 C126.23245,44.379256 122.31575,44.895556 119.18765,44.895556 L90.31265,44.895556 C89.73555,44.895556 89.55559,44.817356 89.50015,44.801806 C89.48252,44.507936 89.6564,43.387406 89.6564,41.801806 L89.6564,12.926806 C89.6614,9.738806 89.4284,6.193306 86.6314,3.397606 C83.9854,0.752306 80.0544,0.134606 76.2564,0.022606 L76.249,0.018806 Z M57.155,5.081306 C58.8497,5.075696 60.668,5.237556 62.28,5.237556 C67.2631,5.239486 72.2366,5.237556 77.218,5.237556 C79.5745,5.237556 81.0698,5.727236 82.093,6.456356 C83.1162,7.185426 83.7638,8.188556 84.1868,9.550156 C85.03265,12.273256 84.78055,16.279656 84.78055,20.112156 L84.78055,47.362156 C84.78055,48.266416 85.48805,48.934956 85.99935,49.205956 C86.5106,49.476936 87.00515,49.599736 87.59315,49.705956 C88.76895,49.918406 90.26495,49.989976 92.06195,50.018456 C95.65595,50.075426 100.40765,49.893846 105.31195,49.737206 C110.21625,49.580566 115.28115,49.441206 119.37395,49.612206 C121.42065,49.697706 123.23025,49.860086 124.62395,50.112206 C126.01765,50.364326 126.98285,50.773666 127.24895,50.987206 C129.25355,52.597206 130.09255,57.075206 130.06145,62.049206 C130.03035,67.023706 129.31145,72.239206 129.31145,75.518206 C129.31145,77.479606 129.35815,79.376606 128.9677,80.862006 C128.57726,82.347406 127.9167,83.402006 126.2177,84.237006 C124.2847,85.186286 120.6762,84.799506 117.6865,84.799506 L88.9365,84.799506 C88.08186,84.799506 87.608,84.536326 86.499,84.799506 C85.94451,84.931096 85.2592,85.512386 85.0302,86.080706 C84.80122,86.649076 84.7802,87.119906 84.7802,87.705706 L84.7802,100.518706 C84.7802,108.203906 85.72846,116.361706 84.81145,123.612706 C84.7970561,123.674478 84.7866182,123.737105 84.7802,123.800206 C84.7802,125.927306 83.99918,127.048806 82.4677,127.987706 C80.9362,128.926586 78.5645,129.483006 75.9365,129.706506 C70.6804,130.153426 64.5435,129.331506 61.1245,129.331506 C58.9215,129.330506 56.6378,129.530746 54.7495,129.237806 C52.8612,128.944816 51.4756,128.324436 50.4683,126.581606 C49.3542,124.652906 49.7808,120.842906 49.7808,117.706606 L49.7808,87.703606 C49.780919,86.871526 49.34423,86.013806 48.7496,85.516106 C48.15492,85.018366 47.4589,84.760406 46.7184,84.578556 C45.2374,84.214846 43.4262,84.184006 41.2809,84.234806 C36.9904,84.336396 31.4288,84.938096 25.9059,85.266006 C20.383,85.593966 14.9059,85.620296 11.0309,84.703506 C9.0933,84.245116 7.5681,83.535906 6.6246,82.672306 C5.68115,81.808666 5.2171,80.836406 5.2184,79.266106 L5.2184,56.078106 C5.2184,53.877606 5.81232,52.611506 6.7496,51.703106 C7.68693,50.794706 9.0888,50.207106 10.8434,49.890606 C14.3524,49.257686 18.9666,49.796856 22.4684,49.796856 L48.0304,49.796856 C48.64006,49.796856 49.0542,49.407806 49.2179,49.203106 C49.38155,48.998406 49.42872,48.866926 49.4679,48.765606 C49.54625,48.562976 49.57145,48.478356 49.5929,48.359356 C49.63581,48.121356 49.63319,47.866136 49.6554,47.578106 C49.69983,47.002036 49.75681,46.248606 49.7804,45.328106 C49.82758,43.487106 49.84244,41.041306 49.8429,38.546906 C49.843824,33.558006 49.7804,28.315906 49.7804,27.577906 C49.7804,24.482006 49.12281,19.624006 49.2804,15.139906 C49.35919,12.898106 49.6566,10.778006 50.24915,9.139906 C50.8417,7.501806 51.65565,6.395306 52.87415,5.796106 C53.93705,5.273396 55.46185,5.082956 57.15535,5.077356 L57.155,5.081306 Z" id="path3795" fill="#000000" fill-rule="nonzero"></path>
                <path d="M51.729,128.81 C51.729,131.3263 79.409,130.1449 82.255,129.59917 C86.9765,128.69602 73.4814,126.58347 72.3329,126.53137 C70.4889,126.44927 51.7269,125.65817 51.7299,128.80997" id="path5" fill="#67BA06"></path>
                <path d="M87.216,123.81 L87.216,88.67 C87.216,86.4 88.5229,87.2385 90.6924,87.2385 C100.2851,87.2385 109.8794,87.2385 119.4744,87.2366 C122.4292,87.2366 125.666,87.62201 128.2538,85.8756 C132.2441,83.1797 131.7698,78.6794 131.7698,74.5116 C131.7698,68.0688 134.6299,53.0116 128.2509,48.7026 C122.6765,44.9374 110.4129,47.3397 104.1989,47.3397 C101.3658,47.3397 87.2189,49.0726 87.2189,45.9072 C87.2189,36.6101 87.2189,27.3142 87.217,18.0182 C87.217,10.3409 87.19478,2.7872 77.2205,2.7872 L63.4795,2.7872 C60.0862,2.7872 55.4313,2.0444 52.1935,3.41506 C44.7355,6.56976 47.3184,20.15106 47.3184,26.45006 C47.3184,28.10376 47.58113,47.34006 47.07788,47.34006 L21.40688,47.34006 C14.61828,47.34006 2.76288,45.46616 2.76488,55.66836 C2.76488,63.50206 2.765846,71.33636 2.765846,79.17036 C2.765846,89.44136 15.966846,87.23976 22.623846,87.23976 C24.625246,87.23976 47.317846,86.98186 47.317846,87.48124 C47.317846,97.17534 47.318812,106.86824 47.318812,116.56124 C47.318812,119.69864 46.682262,123.92744 47.944742,126.91724 C50.150942,132.13814 55.378542,131.79134 60.043742,131.79134 C67.154042,131.78934 87.220742,135.39424 87.215742,123.80984" id="path12" fill="url(#radialGradient-1)"></path>
                <path d="M8.4851,52.106 C11.0023,52.106 9.822,79.786 9.2762,82.632 C8.3701,87.355 6.2586,73.859 6.2064,72.712 C6.1243,70.87 5.3352,52.103 8.4851,52.106" id="path14" fill="#B2ED21"></path>
                <path d="M128.43,52.106 C130.9463,52.106 129.7678,79.786 129.22304,82.632 C128.31699,87.3545 126.20354,73.8584 126.15134,72.7109 C126.06924,70.8689 125.28297,52.1029 128.42994,52.1059" id="path16" fill="#B2ED21"></path>
                <path d="M52.214,83.1 C54.7853,83.1029 53.5045,122.945 52.99158,126.618 C52.64867,129.0608 51.74938,128.8126 51.23258,126.5687 C50.05318,121.4483 50.00878,115.9517 49.88988,110.7277 C49.84062,108.6055 49.12872,83.0967 52.21388,83.0997" id="path18" fill="#67BA06"></path>
                <path d="M89.105,52.362 C89.105,54.9266 123.757,53.6071 126.936,53.21782 C128.4429,53.03236 130.3757,52.2683 127.87972,51.50332 C123.54362,50.17712 118.59512,50.18962 114.11172,50.05442 C112.09102,49.99357 89.10572,49.23531 89.10572,52.36202" id="path20" fill="#B2ED21"></path>
                <path d="M8.4851,52.106 C8.488,49.9317 49.6511,50.3683 49.6531,52.106966 C49.6531,53.966366 8.4911,57.495966 8.4851,52.106" id="path22" fill="#B2ED21"></path>
                <path d="M51.729,8.8643 C51.729,11.3815 79.409,10.1992 82.255,9.65444 C86.975,8.75134 73.481,6.63784 72.332,6.58564 C70.489,6.50354 51.726,5.71344 51.729,8.86434" id="path24" fill="#B2ED21"></path>
                <path d="M51.729,8.8643 C49.5576,8.8643 49.9865,49.7253 51.728034,49.7253 C53.621234,49.726266 57.097634,8.8643 51.729,8.8643" id="path26" fill="#B2ED21"></path>
                <path d="M83.388,7.935 C81.2127,7.935 82.169,31.357 82.1786,33.276 C82.19599,36.8587 81.75455,41.159 82.8422,44.64 C83.68063,47.3253 85.0194,40.2827 85.0706,39.8857 C85.48112,36.6633 88.293,7.9287 83.3879,7.9347" id="path28" fill="#B2ED21"></path>
                <path d="M83.387,84.365 C81.5054,84.3602 82.1738,106.685 82.1738,108.624 C82.1738,114.1762 81.9159,119.833 82.48966,125.366 C82.80649,128.4328 83.90576,128.712 84.58666,125.56981 C85.26475,122.45181 88.03696,84.35481 83.38696,84.36581" id="path30" fill="#67BA06"></path>
                <path d="M8.9198,82.403 C8.9169,80.2335 32.3438,81.184 34.2598,81.1956 C37.8444,81.21299 42.1438,80.77155 45.6238,81.85727 C48.311,82.6957 41.2655,84.03647 40.8714,84.08667 C37.651,84.49623 8.9084,87.30227 8.9194,82.40307" id="path32" fill="#67BA06"></path>
                <path d="M85.517,82.407 C85.5151,80.5031 106.979,81.189 108.823,81.189 C114.3742,81.189 120.031,80.93496 125.565,81.50776 C128.6299,81.82459 128.912,82.92286 125.76978,83.60576 C122.64308,84.28481 85.51778,87.13526 85.51778,82.40706" id="path34" fill="#67BA06"></path>
                <path d="M76.21748,1.51886 C72.56728,1.41116 68.77488,1.83136 65.99848,1.83136 C59.27368,1.83136 48.40848,-0.03164 46.56048,8.95636 C45.38298,14.68246 46.37298,21.44636 46.37298,27.23736 L46.37298,46.39336 C37.84088,46.38566 29.31198,46.392394 20.77898,46.39336 C13.08528,46.39336 1.80998,44.94746 1.80998,56.08086 C1.80998,63.68856 1.05172,71.70086 1.80998,79.26886 C1.80998,90.78286 17.16198,88.17506 24.55998,88.17506 C27.17288,88.17506 46.37198,87.13176 46.37198,89.14381 L46.37198,117.20581 C46.37198,125.86931 47.66768,132.73681 58.12198,132.73681 L72.24698,132.73681 C76.02278,132.73881 80.87708,133.44784 84.18498,131.23681 C90.62598,126.93681 88.15498,113.83681 88.15498,107.33681 L88.15498,92.77481 C88.15498,89.76581 87.15198,88.17681 90.31098,88.17681 L119.18598,88.17681 C122.43828,88.17681 125.93508,88.59999 128.77978,86.67681 C133.09168,83.76261 132.71728,79.03441 132.71728,74.52081 C132.71728,67.59991 135.58088,52.52581 128.77978,47.92681 C125.93508,46.00071 122.43448,46.39561 119.18598,46.39561 L90.31098,46.39561 C87.15298,46.39561 88.15598,44.80561 88.15598,41.80161 L88.15598,12.92661 C88.15498,9.79961 87.95498,6.84951 85.56198,4.45781 C83.37698,2.27291 79.86898,1.62811 76.21798,1.52041 L76.21748,1.51886 Z M57.15548,3.58126 C58.94368,3.57534 60.77558,3.73751 62.28048,3.73751 C67.26278,3.73944 72.23668,3.73751 77.21848,3.73751 C87.50148,3.73751 86.28098,12.60811 86.28098,20.11251 L86.28098,47.36251 C86.28098,50.61191 122.95698,45.63331 128.18698,49.83131 C133.69278,54.25341 130.81198,69.43131 130.81198,75.51931 C130.81198,79.39081 131.01159,83.54851 126.87448,85.58131 C124.27228,86.85921 120.47758,86.30006 117.68698,86.30006 L88.93698,86.30006 C86.92008,86.30006 86.28078,85.67591 86.28078,87.70626 L86.28078,100.51826 C86.28078,108.07866 87.2303,116.29126 86.28078,123.79926 C86.28078,134.12126 67.44678,130.83046 61.12478,130.83046 C56.91718,130.82846 51.69288,131.66558 49.18678,127.33046 C47.65578,124.67996 48.28053,120.62936 48.28053,117.70546 L48.28053,87.70546 C48.281496,80.96996 3.70553,94.70076 3.71853,79.26796 L3.71853,56.07996 C3.71853,46.07796 15.79553,48.29876 22.46853,48.29876 L48.03053,48.29876 C48.52316,48.29876 48.28053,29.20476 48.28053,27.57976 C48.28053,21.84306 45.65353,7.68276 52.21803,4.45476 C53.62803,3.76396 55.36803,3.58796 57.15603,3.58196 L57.15548,3.58126 Z" id="path3791" fill="#507323" fill-rule="nonzero"></path>
            </g>
        </g>
    </g>
</svg>