<?xml version="1.0" encoding="UTF-8"?>
<svg width="136px" height="46px" viewBox="0 0 136 46" version="1.1" xmlns="http://www.w3.org/2000/svg" xmlns:xlink="http://www.w3.org/1999/xlink">
    <!-- Generator: Sketch 52.6 (67491) - http://www.bohemiancoding.com/sketch -->
    <title>g3854</title>
    <desc>Created with Sketch.</desc>
    <defs>
        <radialGradient cx="38.0579094%" cy="-24.1608051%" fx="38.0579094%" fy="-24.1608051%" r="245.941859%" gradientTransform="translate(0.380579,-0.241608),scale(0.318580,1.000000),translate(-0.380579,0.241608)" id="radialGradient-1">
            <stop stop-color="#F59393" offset="0%"></stop>
            <stop stop-color="#CE0909" offset="100%"></stop>
        </radialGradient>
    </defs>
    <g id="Page-1" stroke="none" stroke-width="1" fill="none" fill-rule="evenodd">
        <g id="cyberscooty-plus-minus" transform="translate(-181.000000, -44.000000)">
            <g id="g3854" transform="translate(181.400000, 44.020600)">
                <path d="M45.09,0.7 C37.0569,0.694 29.029,0.69909 20.996,0.7 C17.2426,0.7 12.417,0.28213 8.246,1.41875 C6.1605,1.98706 4.1706,3.00075 2.746,4.73125 C1.3214,6.46175 0.5273,8.85255 0.5273,11.88745 C0.5273,19.34635 -0.19449,27.35345 0.5585,35.07545 L0.5273,35.07545 C0.5273,35.13415 0.5578,35.17345 0.5585,35.2317 C0.5998,38.3576 1.7293,40.8332 3.5585,42.4505 C5.4218,44.0979 7.8301,44.9055 10.371,45.3255 C15.4528,46.16557 21.253,45.48175 24.777,45.48175 C26.2819,45.48175 31.5741,45.20973 36.652,45.2005 C66.1,45.64595 90.285,45.48125 119.402,45.48125 C122.525,45.48125 126.4411,46.02878 129.84,43.73125 C132.3225,42.05345 133.528,39.69195 134.0275,37.32505 C134.52699,34.95805 134.43375,32.54075 134.43375,30.32505 C134.43375,27.07025 135.13469,21.47825 134.99625,16.10605 C134.85781,10.73405 133.94715,5.25805 129.84005,2.48105 C126.44685,0.18355 122.53015,0.69985 119.40205,0.69985 L89.71405,0.60615 L45.09005,0.69995 L45.09,0.7 Z M84.951,4.3961 C85.85374,4.4485 85.70314,4.74122 86.2144,5.01222 C86.72565,5.2832 87.2202,5.406 87.8082,5.51222 C88.984,5.72467 90.48,5.79624 92.277,5.82472 C95.871,5.88172 100.6227,5.70011 105.527,5.54347 C110.4313,5.38683 115.4962,5.24747 119.589,5.41847 C121.6357,5.50397 123.4453,5.66635 124.839,5.91847 C126.2327,6.17059 127.1979,6.57993 127.464,6.79347 C129.4686,8.40347 130.3076,12.88147 130.2765,17.85547 C130.2454,22.82997 129.5265,28.04547 129.5265,31.32447 C129.5265,33.28587 129.5732,35.18287 129.18275,36.66827 C128.79231,38.15367 128.13175,39.20827 126.43275,40.04327 C124.49975,40.99255 120.89125,40.60577 117.90155,40.60577 L89.15155,40.60577 C88.29691,40.60577 87.82305,40.34259 86.71405,40.60577 C86.15956,40.73736 85.47425,41.31865 85.24525,41.88697 C85.01627,42.45534 84.99525,42.92617 84.99525,43.51197 L49.99625,43.51287 C49.99637,42.68079 49.13668,44.0791 48.54205,43.58137 C47.94737,43.08363 47.29835,44.09468 46.55785,43.91283 C45.07685,43.54912 42.37265,43.51828 40.22735,43.56908 C35.93685,43.67067 30.28125,43.09736 24.75835,43.42527 C19.23545,43.75323 15.12135,41.42957 11.24635,40.51277 C9.30875,40.05438 7.78355,39.34517 6.84005,38.48157 C5.8966,37.61793 5.43255,36.64567 5.43385,35.07537 L5.43385,11.88737 C5.43385,9.68687 6.02777,8.42077 6.96505,7.51237 C7.90238,6.60397 9.30425,6.01637 11.05885,5.69987 C14.56785,5.06695 19.18205,5.60617 22.68385,5.60617 L48.24585,5.60617 C48.85551,5.60617 49.26965,5.21712 49.43335,5.01242 C49.597,4.80772 49.64417,4.67624 49.68335,4.57492 C49.76175,4.37229 49.7869,4.28767 49.80835,4.16867 C49.85125,3.93067 49.84865,3.67545 49.87085,3.38742 C49.91525,2.81135 49.92765,3.2856 49.95125,2.36512 L84.951,4.3961 Z" id="path3031" fill="#000000" fill-rule="nonzero"></path>
                <path d="M90.91,43.04 C100.5027,43.04 110.097,43.04 119.692,43.038 C122.6468,43.038 125.8836,43.42341 128.4714,41.677 C132.4617,38.9811 131.9874,34.4808 131.9874,30.313 C131.9874,23.8702 134.8475,8.813 128.4685,4.504 C122.8941,0.7388 111.3285,3.52469 105.2205,2.3822 C102.8338,1.93577 93.2405,2.73117 87.6605,2.289 L47.2965,3.1415 L21.6255,3.1415 C14.8369,3.1415 2.9815,1.2676 2.9835,11.4698 C2.9835,19.3035 2.98447,27.1378 2.98447,34.9718 C2.98447,45.2428 17.17247,43.4172 23.82947,43.4172 C25.83087,43.4172 47.53647,42.7833 47.53647,43.28268" id="path3035" fill="url(#radialGradient-1)"></path>
                <path d="M8.7,7.91 C11.2172,7.91 10.0369,35.59 9.4911,38.436 C8.585,43.159 6.4735,29.663 6.4213,28.516 C6.3392,26.674 5.5501,7.907 8.7,7.91" id="path3037" fill="#ED2121"></path>
                <path d="M128.65,7.91 C131.1663,7.91 129.9878,35.59 129.44304,38.436 C128.53699,43.1585 126.42354,29.6624 126.37134,28.5149 C126.28924,26.6729 125.50297,7.9069 128.64994,7.9099" id="path3039" fill="#BA0606"></path>
                <path d="M8.7,7.91 C8.703,5.7357 49.866,6.1723 49.868,7.91097 C49.868,9.77037 8.706,13.29997 8.7,7.91" id="path3045" fill="#ED2121"></path>
                <path d="M32.34,38.21 C32.336,36.3061 80.165,36.992 84.274,36.992 C96.644,36.992 109.249,36.73796 121.581,37.31076 C128.4107,37.62759 129.0393,38.72586 122.03732,39.40876 C115.06992,40.08781 32.34132,42.93826 32.34132,38.21006" id="path3057" fill="#BA0606"></path>
                <path d="M46.59,2.2 C38.0579,2.192 29.529,2.19903 20.996,2.2 C13.3023,2.2 2.027,0.7541 2.027,11.8875 C2.027,19.4952 1.26874,27.5075 2.027,35.0755 C2.027,46.5895 17.379,43.9817 24.777,43.9817 C60.015,44.71786 85.244,43.9837 119.403,43.9837 C122.6553,43.9837 126.1521,44.40688 128.9968,42.4837 C133.3087,39.5695 132.9343,34.8413 132.9343,30.3277 C132.9343,23.4068 135.7979,8.3327 128.9968,3.7337 C126.1521,1.8076 122.6515,2.2025 119.403,2.2025 L90.528,2.2025 L46.59,2.2005 L46.59,2.2 Z M86.498,3.16915 C89.7464,3.08965 123.174,1.43995 128.404,5.63795 C133.9098,10.06005 131.029,25.23795 131.029,31.32595 C131.029,35.19745 131.22861,39.35515 127.0915,41.38795 C124.4893,42.66585 120.6946,42.1067 117.904,42.1067 L89.154,42.1067 C72.49,43.8241 35.255,42.6302 15.923,42.93437 C4.788,43.10957 4.165,37.16657 3.936,35.07457 L3.936,11.88657 C3.936,1.88457 16.013,4.10537 22.686,4.10537 L48.248,4.10537 L86.498,3.16915 Z" id="path3059" fill="#732323" fill-rule="nonzero"></path>
            </g>
        </g>
    </g>
</svg>