<?xml version="1.0" encoding="UTF-8"?>
<svg width="293px" height="284px" viewBox="0 0 293 284" version="1.1" xmlns="http://www.w3.org/2000/svg" xmlns:xlink="http://www.w3.org/1999/xlink">
    <title>poker-playing-cards-svgrepo-com</title>
    <g id="Page-1" stroke="none" stroke-width="1" fill="none" fill-rule="evenodd">
        <g id="poker-playing-cards-svgrepo-com" fill="#10E824" fill-rule="nonzero">
            <path d="M265.035,258.704 L265.126,258.704 C265.578,256.922 266.081,254.779 266.584,252.956 L268.955,245.385 L261.064,245.385 L263.481,252.961 C264.075,254.824 264.573,256.927 265.035,258.704 Z" id="Path"></path>
            <path d="M137.888,50.908 L137.794,50.908 C137.342,52.69 136.837,54.834 136.339,56.657 L133.967,64.233 L141.861,64.233 L139.441,56.657 C138.845,54.788 138.339,52.69 137.888,50.908 Z" id="Path"></path>
            <path d="M30.603,256.739 C31.941,265.239 36.506,272.719 43.468,277.787 C49.043,281.849 55.61,283.977 62.376,283.977 C64.054,283.977 65.751,283.845 67.446,283.576 L111.571,276.644 C113.348,276.954 115.154,277.131 116.979,277.131 C118.657,277.131 120.354,277.004 122.049,276.735 L126.048,276.105 C129.551,277.76 133.431,278.771 137.565,278.771 L265.502,278.771 C280.426,278.771 292.527,266.665 292.527,251.741 L292.527,57.139 C292.527,42.21 280.425,30.109 265.502,30.109 L245.424,30.109 L245.059,27.783 C243.723,19.283 239.158,11.808 232.196,6.735 C225.24,1.667 216.739,-0.395 208.218,0.951 L154.035,9.462 L27.223,27.656 C9.674,30.414 -2.364,46.938 0.394,64.497 L30.603,256.739 Z M145.553,77.192 L142.77,68.473 L133.051,68.473 L130.405,77.192 L124.611,77.192 L134.47,46.445 L141.63,46.445 L151.623,77.192 L145.553,77.192 Z M260.15,241.145 L269.869,241.145 L272.515,232.431 L278.309,232.431 L268.448,263.178 L261.288,263.178 L251.295,232.431 L257.367,232.431 L260.15,241.145 Z M249.299467,132.913 C249.299467,132.913 249.893,165.097 208.731,199.242 C204.13,203.051 196.264,203.055 191.684,199.226 C150.822,165.087 153.797,132.913 153.797,132.913 C153.797,118.481 165.496,106.782 179.928,106.782 C188.921,106.782 196.848,111.332 201.545,118.253 C206.247,111.332 214.179,106.782 223.167,106.782 C237.599,106.781 249.299467,118.481 249.299467,132.913 Z M83.434,31.084 L209.828,11.219 C215.576,10.3 221.35,11.707 226.067,15.139 C230.78,18.572 233.878,23.635 234.781,29.398 L234.887,30.109 L137.555,30.109 C122.631,30.109 110.525,42.214 110.525,57.139 L110.525,251.742 C110.525,256.855 112.023,261.584 114.493,265.656 L111.789,266.082 C109.085,265.412 106.506,264.229 104.187,262.538 C99.47,259.105 96.377,254.043 95.471,248.279 L65.26,56.037 C63.394,44.145 71.546,32.947 83.434,31.084 Z M28.77,37.934 L61.096,33.298 C56.036,40.027 53.583,48.694 54.992,57.647 L85.201,249.895 C86.351,257.207 89.903,263.757 95.306,268.667 L65.828,273.304 C60.059,274.198 54.298,272.811 49.588,269.383 C44.871,265.95 41.778,260.883 40.872,255.124 L10.661,62.877 C8.795,50.995 16.948,39.798 28.77,37.934 Z" id="Shape"></path>
        </g>
    </g>
</svg>