<?xml version="1.0" encoding="UTF-8"?>
<svg width="448px" height="512px" viewBox="0 0 448 512" version="1.1" xmlns="http://www.w3.org/2000/svg" xmlns:xlink="http://www.w3.org/1999/xlink">
    <title>stand-hand</title>
    <g id="Page-1" stroke="none" stroke-width="1" fill="none" fill-rule="evenodd">
        <g id="stand-hand" fill="#FF0000" fill-rule="nonzero">
            <path d="M408.781,128.007 C386.356,127.578 368,146.36 368,168.79 L368,256 L360,256 L360,79.79 C360,57.36 341.644,38.578 319.219,39.007 C297.488,39.423 280,57.169 280,79 L280,256 L272,256 L272,40.79 C272,18.36 253.644,-0.422 231.219,0.007 C209.488,0.423 192,18.169 192,40 L192,256 L184,256 L184,80.79 C184,58.36 165.644,39.578 143.219,40.007 C121.488,40.423 104,58.169 104,80 L104,315.992 L72.352,272.473 C59.359,254.607 34.343,250.656 16.475,263.65 C-1.39,276.644 -5.34,301.66 7.653,319.527 L133.254,492.232 C142.286406,504.651721 156.716118,512 172.073,512 L369.663,512 C391.937,512 411.285,496.676 416.387,474.994 L442.895,362.334 C446.286113,347.92148 447.999,333.165093 447.999,318.359 L447.999,168 C447.999,146.169 430.512,128.423 408.781,128.007 Z" id="Path"></path>
        </g>
    </g>
</svg>