<?xml version="1.0" encoding="utf-8"?>
<svg version="1.1" id="Layer_1" xmlns="http://www.w3.org/2000/svg" xmlns:xlink="http://www.w3.org/1999/xlink" x="0px" y="0px"
	 viewBox="0 0 1710.0953 1646.3511" enable-background="new 0 0 1710.0953 1646.3511" xml:space="preserve">
<g>
	<path d="M727.6864,1537.8199c-5.382-13.5298-1.7863-20.4757,15.1556-17.6344c117.8339,71.6501,280.2244,44.115,391.2034-23.8652
		C991.6192,1638.6885,855.0417,1673.2456,727.6864,1537.8199z"/>
	<path d="M24.0729,679.9172c6.6487-18.237,14.742-23.2419,25.6522-2.4465c90.2845,452.7245,396.7953,704.3907,781.3934,727.5313
		c425.5504,25.6044,673.0153-246.3273,844.0428-687.3896c2.7212-15.705,14.6604-12.2815,9.6447,3.6567
		c-169.2084,507.5944-498.9102,791.4284-812.6008,782.8419C511.4686,1494.2366,113.1709,1142.9946,24.0729,679.9172z"/>
	<path d="M335.9864,992.1313c39.8115,111.9886,110.8623,144.5751,210.9838,103.2714
		C455.8712,1103.2166,387.0345,1065.7604,335.9864,992.1313z"/>
	<path d="M1256.4103,1044.7531c3.6193-1.7731,7.5913-3.0701,11.8854-3.9329c0.3628-0.073,0.7383-0.0892,1.1067-0.0538
		c50.6775,4.8718,106.5189-14.6301,146.5571-38.6636c-40.4937,40.1168-92.4257,61.924-158.5623,49.7411
		C1253.8104,1051.1832,1253.135,1046.3575,1256.4103,1044.7531z"/>
	<path d="M283.3113,328.5842c-0.3296-0.0379-0.6554-0.08-0.9774-0.1265c-9.2315-1.332-14.2059-11.6578-9.5233-19.7243
		C341.9298,189.6636,486.8941,87.7069,627.2484,36.1224c0.8224-0.3023,1.7228-0.3072,2.5499-0.0181l2.7739,0.9698
		c3.3331,1.1653,3.3659,5.8609,0.0464,7.0642C518.2732,85.5876,412.7123,172.4293,341.6159,291.2568
		c-2.0442,3.4165-4.8266,6.3335-8.1741,8.4888l-41.6059,26.788C289.3098,328.1601,286.2962,328.9271,283.3113,328.5842z"/>
	<path d="M784.9709,649.1878c-0.2338-21.5695-11.5164-38.835-31.5219-52.7025c5.1319-114.6046-16.2568-213.2034-66.8539-294.8905
		c-35.7825-57.7695-82.3168-72.9546-138.9228-66.3456c44.1235,6.4283,80.2587,22.2349,105.728,50.8123
		c63.7341,71.5114,83.2242,176.5312,72.247,304.8282c-153.24-29.8438-307.5194-5.0901-462.8275,73.7239
		c18.4074-180.751,75.1903-320.2993,188.6071-399.041c55.812-36.7091,114.9111-46.2715,177.6326-25.9218
		c-56.9706-37.4996-100.1562-32.952-164.3467,5.2263c33.3909-26.3585,72.4054-49.6696,105.2299-43.7869
		c37.2919,6.6833,95.675,50.1443,132.5994,90.5178c1.1107,1.2144,2.6838,1.9285,4.3292,1.9108
		c12.6985-0.137,23.5037-2.0418,31.7972-6.2915c3.5397-1.8135,4.158-6.6206,1.3019-9.3885
		c-44.8568-43.4729-105.4938-83.5011-160.4257-90.0351c-50.592-6.0178-119.7108,34.5296-171.161,87.2583l9.9383,4.1864
		c-100.3832,94.9841-170.7113,218.8494-183.4291,398.0752l-101.031,51.6742c-6.8951,8.0933-4.4855,13.5605,10.4864,15.4823
		l90.9038-42.7711c7.1172,74.4028,23.8207,143.4673,60.3443,201.3151c57.3116,90.7727,131.0757,131.8856,238.4673,92.8846
		c103.1385-37.4564,178.6252-148.0193,218.0097-355.2631L784.9709,649.1878z M614.2719,621.9241l4.1476,10.3973
		c-15.529-0.2297-24.9867,5.8696-29.549,17.0717l-8.8783-26.0114C579.6795,622.4009,614.2719,621.9241,614.2719,621.9241z
		 M468.0879,633.4724c28.9837-4.785,57.0544-8.2528,83.4692-9.3333c23.6207,30.5357-2.4073,71.2627-36.1837,65.0709
		C476.4055,682.0663,451.5943,655.7728,468.0879,633.4724z M486.3215,966.6248
		c-135.8799-1.3519-211.3172-123.8622-225.2328-275.7747l79.5657-28.8685c-4.0796,139.0111,55.9986,209.8015,184.7762,194.6682
		c103.0757-12.1129,142.2683-93.1547,121.2342-231.6749l75.177,8.1902C686.2278,841.2719,581.3127,967.5698,486.3215,966.6248z"/>
	<path d="M968.558,33.8043c1.3531-0.0575,20.4241-10.6288,20.4241-10.6288c129.6989,15.853,266.1166,79.1288,410.328,197.4129
		c-23.902,19.1268-50.3782,22.9869-76.7177,3.3979C1195.8097,129.6959,1081.0801,37.8774,968.558,33.8043z"/>
	<path d="M1626.99,795.2582c-27.3892-26.4296-64.3118-52.1348-106.4932-77.4403
		c-8.0372-214.3693-84.7272-361.0157-223.5405-446.3802c-109.2311-104.5068-225.881-97.017-346.6-28.0981
		c15.1849,10.33,32.0543,17.8066,51.4563,20.9925c20.0054-11.6643,41.1155-20.0126,63.3251-25.0601
		c-79.8185,65.4134-137.2985,158.7817-125.6309,338.6826l-61.1247,0.2947c-13.3631,6.664-21.8856,18.4173-25.3307,35.5092
		l92.011-0.7948c48.9293,182.5963,102.8458,353.8301,316.1526,370.46c161.6182,12.6,257.6039-64.0427,257.9625-239.2513
		c31.8412,19.7629,60.8658,41.539,87.1705,65.2599c1.2947,1.1676,2.9479,1.8847,4.6888,1.9799
		c6.7008,0.3658,11.8158-1.3978,15.719-4.7884C1630.1617,803.6653,1630.2363,798.3909,1626.99,795.2582z M1198.2181,231.9863
		c-25.2773-4.9819-48.2653-6.9882-65.829-1.9453l0.4797-9.4418C1160.9469,219.9506,1183.9375,222.8936,1198.2181,231.9863z
		 M1125.0829,242.055c149.6815,5.7776,254.5953,104.4895,329.1938,266.9708c30.2471,65.8805,38.5485,131.9117,35.5868,190.8001
		c-154.3268-86.4311-353.881-124.9393-519.6652-123.7638C957.3912,390.0731,992.5142,236.9379,1125.0829,242.055z
		 M1316.1801,676.7559l-14.1552-3.4648l6.4454-14.1916L1316.1801,676.7559z M1261.2664,641.4055l-2.7141,8.4297
		c-14.4271-2.8264-23.5464,3.0499-27.7449,16.9951l-8.5043-6.5971l6.1041-26.4678L1261.2664,641.4055z M1153.8025,683.6607
		c-31.661-4.162-44.6716-28.6486-39.9822-64.6335l84.7833,10.9448C1204.9828,666.5433,1190.1351,688.4368,1153.8025,683.6607z
		 M1268.8215,944.466c-155.494-13.9929-264.0225-157.3621-294.8163-329.8862l51.143-0.1866
		c-10.434,127.3185,70.5532,209.7375,164.7206,209.7096c74.9417-0.0222,173.0339-77.2162,149.6221-162.346
		c57.6636,17.2734,108.2793,38.6777,150.3469,65.0917C1481.0267,836.3032,1401.7231,956.4258,1268.8215,944.466z"/>
</g>
</svg>
