<?xml version="1.0" encoding="UTF-8"?>
<svg width="513px" height="513px" viewBox="0 0 513 513" version="1.1" xmlns="http://www.w3.org/2000/svg" xmlns:xlink="http://www.w3.org/1999/xlink">
    <title>236659031578467088</title>
    <g id="Page-1" stroke="none" stroke-width="1" fill="none" fill-rule="evenodd">
        <g id="236659031578467088" fill-rule="nonzero">
            <path d="M314.609,308.618 L242.626,308.618 L155.768,275.608 L82.742,275.608 L82.742,464.988 L126.699,464.988 L182.643,497.549 L346.211,497.549 L512.506,341.255 L497.828,326.577 C487.961,317.84 475.409,313.056 462.117,313.056 C447.704,313.056 434.155,318.668 423.964,328.86 L366.849,385.974 L238.878,385.974 L238.878,355.974 L353.967,355.974 L353.967,347.977 C353.967,326.239 336.346,308.618 314.609,308.618 L314.609,308.618 Z" id="Path" fill="#C18659"></path>
            <polygon id="Path" fill="#5BC980" points="0 275.608 102.744 275.608 102.744 512.237 0 512.237"></polygon>
            <circle id="Oval" fill="#FFF16B" cx="255.878" cy="130.622" r="115.351"></circle>
            <g id="Group" transform="translate(125.000000, 0.000000)" fill="#FFD321">
                <path d="M246.229,130.621 C246.229,66.914 194.585,15.27 130.878,15.27 L130.878,245.972 C194.585,245.972 246.229,194.328 246.229,130.621 Z" id="Path"></path>
                <path d="M130.878,260.972 C59.002,260.972 0.527,202.497 0.527,130.621 C0.527,58.745 59.002,0.27 130.878,0.27 C202.754,0.27 261.229,58.746 261.229,130.622 C261.229,202.498 202.754,260.972 130.878,260.972 Z M130.878,30.27 C75.545,30.27 30.527,75.288 30.527,130.622 C30.527,185.955 75.545,230.973 130.878,230.973 C186.211,230.973 231.229,185.955 231.229,130.622 C231.229,75.288 186.211,30.27 130.878,30.27 Z" id="Shape"></path>
                <polygon id="Path" points="145.878 154.898 145.878 76.344 103.635 76.344 103.635 106.344 115.878 106.344 115.878 154.898 97.876 154.898 97.876 184.898 163.88 184.898 163.88 154.898"></polygon>
            </g>
            <path d="M353.967,355.973 L353.967,347.976 C353.967,326.239 336.346,308.618 314.609,308.618 L255.878,308.618 L255.878,355.973 L353.967,355.973 Z" id="Path" fill="#AF7A4A"></path>
            <path d="M512.507,341.254 L497.829,326.576 C487.962,317.839 475.41,313.055 462.118,313.055 C447.705,313.055 434.156,318.667 423.965,328.859 L366.85,385.973 L255.878,385.973 L255.878,497.549 L346.212,497.549 L512.507,341.254 Z" id="Path" fill="#AF7A4A"></path>
            <path d="M255.878,0.27 L255.878,30.27 C311.211,30.27 356.229,75.288 356.229,130.622 C356.229,185.955 311.211,230.973 255.878,230.973 L255.878,260.973 C327.754,260.973 386.229,202.498 386.229,130.622 C386.229,58.746 327.754,0.27 255.878,0.27 Z" id="Path" fill="#FFAF00"></path>
            <polygon id="Path" fill="#FFAF00" points="288.88 154.898 270.878 154.898 270.878 76.344 255.878 76.344 255.878 184.898 288.88 184.898"></polygon>
        </g>
    </g>
</svg>